<?xml version="1.0" encoding="UTF-8"?>
<svg version="1.1" xmlns="http://www.w3.org/2000/svg" width="1024" height="1024">
<path d="M0 0 C3.04082007 1.68720607 3.40372218 4.24978357 4.4765625 7.46484375 C4.68893555 8.10083496 4.90130859 8.73682617 5.12011719 9.39208984 C8.08935262 18.51846075 9.33599902 27.46486868 9.8515625 37.02734375 C9.90570313 37.93871094 9.95984375 38.85007812 10.015625 39.7890625 C10.81636809 65.88600783 1.20647266 88.7653006 -16.1484375 108.02734375 C-21.91667241 114.1515701 -27.84300993 120.10253162 -34.52734375 125.234375 C-39.32692332 130.54282566 -39.77838417 137.14632462 -40.3359375 143.96484375 C-40.41779297 144.82013672 -40.49964844 145.67542969 -40.58398438 146.55664062 C-41.05391237 151.73374655 -41.22672784 156.83006997 -41.1484375 162.02734375 C-36.94460833 163.05553114 -32.90135805 163.14182332 -28.6015625 163.08984375 C-27.87209412 163.08605713 -27.14262573 163.08227051 -26.39105225 163.07836914 C-23.29724845 163.06223114 -20.20358193 163.03455861 -17.10986328 163.00683594 C-6.07812086 162.91666467 4.84627578 163.24499395 15.8515625 164.02734375 C15.84612427 162.59394653 15.84612427 162.59394653 15.84057617 161.1315918 C15.81588514 151.7502674 15.87957452 142.37448628 16.11401367 132.99584961 C16.14783386 131.53894194 16.17567456 130.08188503 16.19799805 128.62475586 C16.23152986 126.47325006 16.28367458 124.32289442 16.33984375 122.171875 C16.36602783 120.91737549 16.39221191 119.66287598 16.41918945 118.37036133 C16.87980472 114.8089808 17.70602467 112.87720986 19.8515625 110.02734375 C22.7908378 108.5577061 25.82463976 108.70675668 29.0546875 108.5703125 C30.12780182 108.52491081 30.12780182 108.52491081 31.22259521 108.47859192 C32.73893998 108.41778252 34.25540772 108.35997733 35.77197266 108.30493164 C37.31825491 108.24513515 38.86421234 108.17620304 40.40966797 108.09790039 C42.64517272 107.98476175 44.8802544 107.89957206 47.1171875 107.8203125 C47.8017804 107.78093063 48.48637329 107.74154877 49.19171143 107.70097351 C54.24121389 107.56893724 57.09705305 108.67014607 60.8515625 112.02734375 C62.54112968 116.10893947 63.10333861 119.58930851 63.11225891 123.98547363 C63.11934372 125.15461807 63.12642853 126.32376251 63.13372803 127.52833557 C63.13125061 128.7970903 63.12877319 130.06584503 63.1262207 131.37304688 C63.13057173 132.73364033 63.13575619 134.09423133 63.14170837 135.45481873 C63.1550659 139.13866086 63.15568081 142.8224002 63.15314507 146.50626183 C63.15207341 149.5853274 63.1569636 152.66437234 63.1617505 155.74343348 C63.1728339 163.00817065 63.1732893 170.27285612 63.16723633 177.53759766 C63.16119326 185.02554351 63.1735186 192.51330163 63.1948064 200.00121546 C63.21243095 206.43790714 63.21842252 212.8745391 63.21516865 219.31125402 C63.21335741 223.15226189 63.21597626 226.99313574 63.22988319 230.8341217 C63.24247133 234.44573258 63.24050836 238.05705085 63.22747231 241.6686573 C63.22398485 243.62122996 63.23527652 245.57381159 63.24703979 247.52635193 C63.18154229 258.44346554 63.18154229 258.44346554 59.8515625 263.02734375 C56.18430346 265.47218311 53.32877409 265.38439872 49.078125 265.43359375 C48.31736664 265.4449939 47.55660828 265.45639404 46.77279663 265.46813965 C45.16401719 265.48701821 43.55516078 265.50009917 41.94628906 265.5078125 C39.49145891 265.52722595 37.03998126 265.58926793 34.5859375 265.65234375 C33.02085317 265.66540532 31.45574495 265.67590569 29.890625 265.68359375 C29.16026031 265.70828735 28.42989563 265.73298096 27.67739868 265.75842285 C25.58447266 265.74023438 25.58447266 265.74023438 21.8515625 265.02734375 C9.85391549 250.63016734 16.8515625 227.76826748 16.8515625 209.02734375 C-26.0484375 209.02734375 -68.9484375 209.02734375 -113.1484375 209.02734375 C-113.1484375 225.85734375 -113.1484375 242.68734375 -113.1484375 260.02734375 C-118.72455135 265.6034576 -118.72455135 265.6034576 -123.92297363 265.74772644 C-125.0091095 265.73725029 -125.0091095 265.73725029 -126.1171875 265.7265625 C-126.87511597 265.7337178 -127.63304443 265.74087311 -128.41394043 265.74824524 C-130.01081165 265.75600353 -131.6077894 265.75104953 -133.20458984 265.73413086 C-135.64234092 265.71489186 -138.07439501 265.75431192 -140.51171875 265.79882812 C-142.06771171 265.7991185 -143.62370988 265.79597819 -145.1796875 265.7890625 C-145.90377808 265.80434494 -146.62786865 265.81962738 -147.37390137 265.83537292 C-151.0816242 265.75037472 -152.94924201 265.18907106 -155.83932495 262.84260559 C-159.74377272 257.79129122 -158.84214941 251.2976436 -158.79541016 245.22265625 C-158.8021909 243.8127937 -158.8110966 242.40294002 -158.82196045 240.99310303 C-158.84470689 237.17477346 -158.83593728 233.35712124 -158.82006502 229.53878021 C-158.80738162 225.5377168 -158.81915289 221.53671029 -158.82699585 217.53564453 C-158.83608536 210.81727719 -158.82412303 204.09918492 -158.80029297 197.38085938 C-158.77308279 189.62010466 -158.78189747 181.86000676 -158.809425 174.09926796 C-158.83213517 167.42898765 -158.8353069 160.75890475 -158.82223165 154.08859825 C-158.81444753 150.10780449 -158.81336663 146.12731919 -158.82991409 142.14654541 C-158.84438769 138.40339759 -158.83428587 134.66109426 -158.80544281 130.91803741 C-158.7957078 128.89391736 -158.81050759 126.86972565 -158.82608032 124.84564209 C-158.710637 114.9282361 -158.710637 114.9282361 -155.79110718 111.21972656 C-152.50758561 108.49568719 -150.26395749 108.03975592 -146.1484375 108.02734375 C-145.12459961 108.01219727 -144.10076172 107.99705078 -143.04589844 107.98144531 C-139.36793876 107.97228857 -135.7000188 108.05410006 -132.0234375 108.15234375 C-130.76144531 108.16265625 -129.49945313 108.17296875 -128.19921875 108.18359375 C-126.98363281 108.21710938 -125.76804688 108.250625 -124.515625 108.28515625 C-123.41331543 108.30723145 -122.31100586 108.32930664 -121.17529297 108.35205078 C-116.93576569 109.29789144 -115.58475192 110.40843366 -113.1484375 114.02734375 C-112.47289075 117.84469576 -112.56633008 121.58704369 -112.66015625 125.453125 C-112.66519165 126.43099976 -112.67022705 127.40887451 -112.67541504 128.41638184 C-112.70151107 132.05783543 -112.77131837 135.69887003 -112.8359375 139.33984375 C-112.9390625 147.48671875 -113.0421875 155.63359375 -113.1484375 164.02734375 C-96.3184375 164.02734375 -79.4884375 164.02734375 -62.1484375 164.02734375 C-62.1484375 159.07734375 -62.1484375 154.12734375 -62.1484375 149.02734375 C-61.98331492 145.99105985 -61.79359857 143.03918967 -61.4609375 140.02734375 C-61.37553711 139.24883057 -61.29013672 138.47031738 -61.20214844 137.66821289 C-57.6779404 108.50740032 -47.59045574 81.47501577 -33.1484375 56.02734375 C-33.4784375 56.02734375 -33.8084375 56.02734375 -34.1484375 56.02734375 C-53.13695479 77.0046833 -66.95796743 109.334005 -66.1484375 138.02734375 C-67.1384375 138.02734375 -68.1284375 138.02734375 -69.1484375 138.02734375 C-79.71316612 125.26269585 -85.24903117 108.38018615 -86.1484375 92.02734375 C-86.20128906 91.33640625 -86.25414062 90.64546875 -86.30859375 89.93359375 C-87.15355324 70.24236389 -77.95596375 52.14484378 -65.0234375 37.96484375 C-49.46214864 21.44380816 -30.09970162 11.25674942 -9.24023438 2.87890625 C-7.57202183 2.19978331 -5.92600077 1.46622525 -4.2890625 0.71484375 C-2.1484375 0.02734375 -2.1484375 0.02734375 0 0 Z " fill="#3DBD4C" transform="translate(330.1484375,318.97265625)"/>
<path d="M0 0 C0.97195313 -0.020625 1.94390625 -0.04125 2.9453125 -0.0625 C3.87859375 -0.06765625 4.811875 -0.0728125 5.7734375 -0.078125 C6.63114746 -0.0874707 7.48885742 -0.09681641 8.37255859 -0.10644531 C10.625 0.25 10.625 0.25 12.25854492 1.28442383 C14.33503307 4.27134648 15.27429048 7.58678618 16.33984375 11.02734375 C16.71796707 12.20760635 16.71796707 12.20760635 17.10372925 13.41171265 C17.93161988 16.00107809 18.74697934 18.5942149 19.5625 21.1875 C20.71773316 24.81626297 21.87880013 28.443155 23.0390625 32.0703125 C23.33369888 32.9946962 23.62833527 33.9190799 23.93190002 34.87147522 C25.95313549 41.20007796 28.02917099 47.50826831 30.1484375 53.8046875 C30.42766556 54.63498978 30.70689362 55.46529205 30.99458313 56.320755 C32.07226712 59.52134984 33.15165672 62.72133269 34.23825073 65.91891479 C34.9816046 68.1074541 35.71970935 70.29770395 36.45703125 72.48828125 C36.87702393 73.72618408 37.2970166 74.96408691 37.72973633 76.23950195 C38.625 79.25 38.625 79.25 38.625 82.25 C39.615 82.25 40.605 82.25 41.625 82.25 C41.8415625 80.95578125 42.058125 79.6615625 42.28125 78.328125 C43.88074179 70.35862918 46.57866455 62.70485139 49.125 55 C49.66104565 53.36471476 50.1966852 51.72929636 50.73193359 50.09375 C52.09117396 45.94656306 53.45807925 41.80195475 54.82849121 37.65844727 C55.59792379 35.33187181 56.3660217 33.0048598 57.13378906 30.67773438 C58.50170615 26.53377389 59.87430609 22.39138479 61.25 18.25 C61.66314453 17.00573242 62.07628906 15.76146484 62.50195312 14.47949219 C62.88544922 13.33125977 63.26894531 12.18302734 63.6640625 11 C64.16220459 9.50726563 64.16220459 9.50726563 64.67041016 7.984375 C65.58004968 5.37875796 66.60002335 2.81244162 67.625 0.25 C75.215 0.58 82.805 0.91 90.625 1.25 C84.3229965 20.40697526 77.78275122 39.46436527 71.03106689 58.46716309 C68.12571232 66.64729643 65.24618664 74.83648778 62.36904907 83.02658081 C61.51769165 85.44964741 60.66551055 87.87242313 59.81323242 90.29516602 C59.28950581 91.78530321 58.76582198 93.27545543 58.2421875 94.765625 C57.88830208 95.77117683 57.88830208 95.77117683 57.52726746 96.79704285 C56.19059461 100.60428053 54.90122869 104.42131394 53.625 108.25 C44.715 108.25 35.805 108.25 26.625 108.25 C21.26302506 94.68034839 16.27626365 81.01374969 11.4375 67.25 C10.69286635 65.13801779 9.94799039 63.026121 9.20288086 60.91430664 C7.71400653 56.69349951 6.22662734 52.47216983 4.74023438 48.25048828 C2.80865482 42.76705082 0.86708135 37.28720933 -1.078125 31.80859375 C-1.89979947 29.4916787 -2.72126722 27.17469049 -3.54263306 24.85766602 C-4.05012484 23.42710528 -4.55822826 21.99676136 -5.06698608 20.56665039 C-5.76409347 18.60632966 -6.45853414 16.64508363 -7.15234375 14.68359375 C-7.53640381 13.60134521 -7.92046387 12.51909668 -8.31616211 11.40405273 C-9.44506706 8.04128514 -10.42517961 4.66714514 -11.375 1.25 C-9.01278593 -1.11221407 -3.17140642 0.01669161 0 0 Z " fill="#263339" transform="translate(464.375,452.75)"/>
<path d="M0 0 C6.52790138 5.63773301 10.73408134 12.29611953 11.41186523 20.97973633 C11.49194765 22.49248937 11.5610827 24.00584911 11.62109375 25.51953125 C11.65883408 26.34298538 11.6965744 27.16643951 11.73545837 28.0148468 C12.14532166 37.90325538 12.10927726 47.79278633 12.0625 57.6875 C12.05746528 59.57617066 12.05290592 61.46484265 12.04882812 63.35351562 C12.0388656 67.90240529 12.01926592 72.45110307 12 77 C5.4 77 -1.2 77 -8 77 C-8.33 75.02 -8.66 73.04 -9 71 C-9.58007812 71.40992188 -10.16015625 71.81984375 -10.7578125 72.2421875 C-19.16262962 78.03956961 -25.71945712 80.0381829 -36 79 C-43.5581414 77.12015457 -49.22418185 74.41029087 -54.1875 68.3125 C-58.05171712 61.2503101 -58.94779818 53.84178488 -57 46 C-54.17240118 39.53045391 -49.88239665 34.64829562 -43.359375 31.87890625 C-32.44641312 28.1361442 -20.52114602 26.78089738 -9 27 C-10.11407851 19.50826913 -10.11407851 19.50826913 -15 14 C-20.22458 12.25847333 -25.16193393 12.38731131 -30.375 14.125 C-33.52667962 16.37619973 -34.39346064 18.53325717 -36 22 C-38.41700987 21.85870713 -40.83350429 21.71213513 -43.25 21.5625 C-43.93191406 21.52318359 -44.61382813 21.48386719 -45.31640625 21.44335938 C-48.64448041 21.23333528 -51.80255402 20.98065998 -55 20 C-54.70202538 11.80569798 -51.41889516 6.51386447 -45.75 0.6875 C-31.98117258 -7.76155319 -13.88883658 -8.97958338 0 0 Z M-34.65234375 46.421875 C-36.70425239 48.82468976 -36.81351497 50.89191611 -37 54 C-36.66390749 56.75691443 -36.66390749 56.75691443 -35 59 C-29.53059212 62.34861707 -25.17617588 62.44261043 -19 61 C-14.40849645 59.44062144 -11.94824996 57.48557638 -9.6796875 53.1171875 C-8.40528056 49.14748313 -8.70195591 45.11466421 -9 41 C-22.6658184 40.81448552 -22.6658184 40.81448552 -34.65234375 46.421875 Z " fill="#27353B" transform="translate(713,484)"/>
<path d="M0 0 C21.45 0 42.9 0 65 0 C65 6.27 65 12.54 65 19 C62.2937563 19.90208123 60.76149014 20.12227599 57.98754883 20.11352539 C57.18694534 20.11344986 56.38634186 20.11337433 55.56147766 20.11329651 C54.70201035 20.10813522 53.84254303 20.10297394 52.95703125 20.09765625 C52.0734343 20.0962413 51.18983734 20.09482635 50.27946472 20.09336853 C47.45710872 20.08777069 44.63483203 20.07521861 41.8125 20.0625 C39.89908969 20.05748472 37.98567813 20.05292186 36.07226562 20.04882812 C31.38145527 20.03865283 26.69081642 20.01907698 22 20 C22 28.25 22 36.5 22 45 C24.80371094 44.91621094 27.60742188 44.83242188 30.49609375 44.74609375 C33.19991847 44.66877518 35.90378692 44.5932123 38.60766602 44.51782227 C40.49248476 44.4643234 42.37725228 44.4089882 44.26196289 44.35180664 C46.96489411 44.2701149 49.66793839 44.1949446 52.37109375 44.12109375 C53.21900986 44.09405869 54.06692596 44.06702362 54.9405365 44.03916931 C56.95973106 43.98719474 58.98017158 43.98811787 61 44 C62.5220959 45.5220959 62.12959521 46.88210082 62.1328125 49 C62.13474609 50.2065625 62.13474609 50.2065625 62.13671875 51.4375 C62.13285156 52.283125 62.12898437 53.12875 62.125 54 C62.13080078 55.2684375 62.13080078 55.2684375 62.13671875 56.5625 C62.13542969 57.366875 62.13414062 58.17125 62.1328125 59 C62.13168457 59.7425 62.13055664 60.485 62.12939453 61.25 C62 63 62 63 61 64 C58.04294679 64.08868299 55.10934944 64.11520296 52.15234375 64.09765625 C50.82270348 64.09553383 50.82270348 64.09553383 49.46620178 64.09336853 C46.62326746 64.08775215 43.78041069 64.07519691 40.9375 64.0625 C39.01497509 64.05748711 37.09244896 64.05292384 35.16992188 64.04882812 C30.44658451 64.03777741 25.72330542 64.02050183 21 64 C21.16298584 64.81098145 21.32597168 65.62196289 21.49389648 66.45751953 C22.08177691 70.57239891 22.12516635 74.53094935 22.09765625 78.6796875 C22.0962413 79.49245148 22.09482635 80.30521545 22.09336853 81.14260864 C22.08780335 83.72011101 22.0752574 86.2975242 22.0625 88.875 C22.0574805 90.63020707 22.05291838 92.38541552 22.04882812 94.140625 C22.0386993 98.42714473 22.01911731 102.71347338 22 107 C11.605 107.495 11.605 107.495 1 108 C-0.31854344 105.36291311 -0.11283237 103.39094301 -0.09765625 100.44140625 C-0.09443359 99.33345703 -0.09121094 98.22550781 -0.08789062 97.08398438 C-0.07951172 95.92189453 -0.07113281 94.75980469 -0.0625 93.5625 C-0.05573242 91.82516602 -0.05573242 91.82516602 -0.04882812 90.05273438 C-0.04008456 87.90306588 -0.02929698 85.7534041 -0.01586914 83.60375977 C-0.00448489 81.73586705 0 79.86792741 0 78 C0 52 0 26 0 0 Z " fill="#27353B" transform="translate(740,454)"/>
<path d="M0 0 C1.23157837 0.00616333 1.23157837 0.00616333 2.48803711 0.01245117 C3.37942383 0.01438477 4.27081055 0.01631836 5.18920898 0.01831055 C6.1218457 0.03055664 7.05448242 0.04280273 8.01538086 0.05541992 C9.42013672 0.05638672 9.42013672 0.05638672 10.85327148 0.05737305 C17.81268862 0.10272768 17.81268862 0.10272768 18.95288086 1.24291992 C19.0391996 2.58559405 19.05994559 3.93266314 19.05053711 5.27807617 C19.04731445 6.08696289 19.0440918 6.89584961 19.04077148 7.72924805 C19.02820313 9.00445312 19.02820313 9.00445312 19.01538086 10.30541992 C19.01086914 11.15942383 19.00635742 12.01342773 19.00170898 12.89331055 C18.98988459 15.00987656 18.97194855 17.12640677 18.95288086 19.24291992 C24.56288086 19.24291992 30.17288086 19.24291992 35.95288086 19.24291992 C36.68876384 23.65821781 37.06418452 27.22559003 37.01538086 31.61791992 C37.00635742 32.6775293 36.99733398 33.73713867 36.98803711 34.82885742 C36.97643555 35.62549805 36.96483398 36.42213867 36.95288086 37.24291992 C33.33420527 38.44914512 30.02781835 38.3510891 26.26538086 38.30541992 C25.21253906 38.29865234 25.21253906 38.29865234 24.13842773 38.29174805 C22.40987548 38.27998919 20.6813672 38.26205446 18.95288086 38.24291992 C19.07106617 44.02715988 19.19531026 49.81122575 19.32519531 55.59521484 C19.36853327 57.56327771 19.41020918 59.5313779 19.45019531 61.49951172 C19.50792531 64.32685602 19.57161202 67.15401263 19.63647461 69.98120117 C19.6531871 70.86254227 19.6698996 71.74388336 19.68711853 72.65193176 C19.71703636 73.88286812 19.71703636 73.88286812 19.74755859 75.13867188 C19.77087502 76.22122002 19.77087502 76.22122002 19.79466248 77.32563782 C19.89483343 79.46400137 19.89483343 79.46400137 20.95288086 82.24291992 C26.3291332 83.09180187 30.60658484 83.24535043 35.95288086 82.24291992 C36.86834535 86.70496168 36.93135959 90.58837377 36.51538086 95.11791992 C36.41354492 96.2703418 36.31170898 97.42276367 36.20678711 98.61010742 C36.12299805 99.47893555 36.03920898 100.34776367 35.95288086 101.24291992 C26.07483645 103.48461635 15.94105507 103.23143041 6.95288086 98.24291992 C1.13956706 93.65408735 -1.48376994 86.97698518 -2.34432983 79.74533081 C-2.48522417 77.07342837 -2.54017367 74.41452719 -2.55883789 71.73901367 C-2.57678909 70.77512222 -2.5947403 69.81123077 -2.61323547 68.81813049 C-2.66694767 65.77227004 -2.70110795 62.72656272 -2.73461914 59.68041992 C-2.76782676 57.60162275 -2.80231956 55.52284568 -2.83813477 53.4440918 C-2.92265135 48.37714573 -2.98964779 43.31024198 -3.04711914 38.24291992 C-7.00711914 38.24291992 -10.96711914 38.24291992 -15.04711914 38.24291992 C-16.08308275 34.0990655 -15.95372855 30.67760674 -15.60961914 26.49291992 C-15.53130859 25.4468457 -15.53130859 25.4468457 -15.45141602 24.37963867 C-15.32237842 22.66695789 -15.185523 20.95486926 -15.04711914 19.24291992 C-11.08711914 18.91291992 -7.12711914 18.58291992 -3.04711914 18.24291992 C-3.04711914 14.94291992 -3.04711914 11.64291992 -3.04711914 8.24291992 C-3.37711914 8.24291992 -3.70711914 8.24291992 -4.04711914 8.24291992 C-4.17211914 5.36791992 -4.17211914 5.36791992 -4.04711914 2.24291992 C-2.04711914 0.24291992 -2.04711914 0.24291992 0 0 Z " fill="#28353A" transform="translate(860.047119140625,459.757080078125)"/>
<path d="M0 0 C6.6 0 13.2 0 20 0 C20.66 1.32 21.32 2.64 22 4 C21.34 4 20.68 4 20 4 C20 8.95 20 13.9 20 19 C25.94 19 31.88 19 38 19 C38 24.94 38 30.88 38 37 C34.9371875 37.2475 34.9371875 37.2475 31.8125 37.5 C30.66394531 37.5928125 29.51539063 37.685625 28.33203125 37.78125 C25.53927574 37.9645962 22.79680188 38.04213637 20 38 C20.16443604 38.84763916 20.32887207 39.69527832 20.49829102 40.56860352 C21.01225819 44.08383886 21.08135825 47.35216184 21.02734375 50.90234375 C21.00897461 52.85624023 21.00897461 52.85624023 20.99023438 54.84960938 C20.96546665 56.8945403 20.93747022 58.93932234 20.90405273 60.98413086 C20.8735982 62.97758409 20.85659682 64.97122829 20.83984375 66.96484375 C20.82300537 68.1468335 20.80616699 69.32882324 20.78881836 70.54663086 C21.01844295 74.30159014 21.76121313 77.45287708 23 81 C25.38290182 82.97350459 26.64180168 83.01231627 29.7265625 82.90625 C31.16128906 82.70515625 31.16128906 82.70515625 32.625 82.5 C35.5390625 82.09375 35.5390625 82.09375 38 82 C38.99 82.99 38.99 82.99 40 84 C39.34 84 38.68 84 38 84 C38 89.61 38 95.22 38 101 C26.67864025 102.61733711 16.61536138 103.16522754 6.625 96.875 C0.29000698 89.93667431 -0.57801614 82.72953699 -0.390625 73.62109375 C-0.38496521 72.56841812 -0.37930542 71.51574249 -0.37347412 70.4311676 C-0.35124884 67.09946426 -0.30107768 63.7688732 -0.25 60.4375 C-0.22991714 58.16603126 -0.21166951 55.8945455 -0.1953125 53.62304688 C-0.15142971 48.08165768 -0.08465777 42.54090834 0 37 C-1.485 37.495 -1.485 37.495 -3 38 C-4.70632648 38.09267588 -6.41616587 38.12998202 -8.125 38.125 C-9.01445313 38.12757813 -9.90390625 38.13015625 -10.8203125 38.1328125 C-13 38 -13 38 -14 37 C-14.07244053 34.98035801 -14.08377188 32.95832876 -14.0625 30.9375 C-14.05347656 29.83277344 -14.04445313 28.72804688 -14.03515625 27.58984375 C-14.02355469 26.73519531 -14.01195312 25.88054687 -14 25 C-14.66 25 -15.32 25 -16 25 C-16 23.35 -16 21.7 -16 20 C-12.57767028 18.85922343 -9.91326783 18.90184883 -6.3125 18.9375 C-4.54326172 18.95103516 -4.54326172 18.95103516 -2.73828125 18.96484375 C-1.83464844 18.97644531 -0.93101562 18.98804688 0 19 C-0.08378906 17.87980469 -0.16757812 16.75960938 -0.25390625 15.60546875 C-0.35708445 14.13283444 -0.45993179 12.66017692 -0.5625 11.1875 C-0.61857422 10.44951172 -0.67464844 9.71152344 -0.73242188 8.95117188 C-0.95769724 5.63211484 -1.06255812 3.18767436 0 0 Z " fill="#27343A" transform="translate(608,460)"/>
<path d="M0 0 C1.31355469 -0.02578125 2.62710937 -0.0515625 3.98046875 -0.078125 C8.03725735 0.26924528 10.39311433 1.0818562 13.8125 3.25 C16.20642629 6.84088943 16.10838732 9.43195176 16.10302734 13.57958984 C16.11310318 14.69473717 16.11310318 14.69473717 16.12338257 15.83241272 C16.14239244 18.29198883 16.1462883 20.75129248 16.1484375 23.2109375 C16.15486362 24.92103183 16.16159184 26.63112504 16.16860962 28.34121704 C16.18059004 31.92737375 16.18428969 35.51343407 16.18310547 39.09960938 C16.1829023 43.69203466 16.21019897 48.28384099 16.24464989 52.87611961 C16.26690259 56.40891348 16.27094351 59.94155805 16.26988602 63.47441483 C16.27224465 65.16728472 16.28108295 66.86015857 16.29655075 68.55295944 C16.31617744 70.92295225 16.31038668 73.2916061 16.29833984 75.66162109 C16.30957886 76.35893845 16.32081787 77.0562558 16.33239746 77.77470398 C16.28725191 81.27500154 15.85854799 83.17724301 13.96963501 86.16177368 C10.03158121 89.97402816 5.77831739 89.37100928 0.625 89.3125 C-0.12458984 89.30798828 -0.87417969 89.30347656 -1.64648438 89.29882812 C-3.49352383 89.28706354 -5.34052213 89.26912865 -7.1875 89.25 C-8.3613006 84.65567107 -8.26724137 80.26325395 -8.1875 75.5625 C-7.84988567 70.24950074 -7.84988567 70.24950074 -9.1875 65.25 C-8.86423599 63.24834781 -8.52896951 61.24862695 -8.1875 59.25 C-8.11984526 56.90322631 -8.10242201 54.55467137 -8.125 52.20703125 C-8.12878662 51.55675461 -8.13257324 50.90647797 -8.13647461 50.23649597 C-8.14859445 48.17842667 -8.16723123 46.12050416 -8.1875 44.0625 C-8.21410928 41.33980071 -8.23400697 38.61734521 -8.25 35.89453125 C-8.26160156 34.69159424 -8.27320313 33.48865723 -8.28515625 32.24926758 C-8.1875 29.25 -8.1875 29.25 -7.1875 26.25 C-7.8475 25.92 -8.5075 25.59 -9.1875 25.25 C-8.5275 25.25 -7.8675 25.25 -7.1875 25.25 C-7.2596875 24.35539062 -7.331875 23.46078125 -7.40625 22.5390625 C-8.60634817 6.90445026 -8.60634817 6.90445026 -8.1875 1.25 C-6.23283483 -0.70466517 -2.65864994 0.02016038 0 0 Z " fill="#3FBF4F" transform="translate(409.1875,461.75)"/>
<path d="M0 0 C0 29.37 0 58.74 0 89 C-17 89 -17 89 -22 85 C-23.47945006 82.04109987 -23.16462371 79.02919119 -23.17700195 75.78393555 C-23.18357315 75.04065002 -23.19014435 74.2973645 -23.19691467 73.53155518 C-23.216659 71.06660872 -23.22831283 68.60172322 -23.23828125 66.13671875 C-23.24235678 65.29528635 -23.2464323 64.45385395 -23.25063133 63.5869236 C-23.27149707 59.13322825 -23.2857965 54.67956375 -23.29516602 50.22583008 C-23.30623069 45.62556601 -23.34062952 41.02578563 -23.38033772 36.42569256 C-23.40648354 32.88862712 -23.41485603 29.35167727 -23.41844749 25.8145237 C-23.42331886 24.11885118 -23.43494855 22.42318401 -23.45348549 20.72760582 C-23.47783423 18.35276351 -23.47692027 15.97917697 -23.4699707 13.60424805 C-23.48278076 12.90535965 -23.49559082 12.20647125 -23.50878906 11.48640442 C-23.4714413 7.98026468 -23.04904833 6.07756576 -21.15812683 3.0872345 C-15.192931 -2.68201054 -9.04654945 0 0 0 Z " fill="#3DBB4C" transform="translate(163,462)"/>
<path d="M0 0 C3.31248187 -0.02888146 6.62493167 -0.04675799 9.9375 -0.0625 C10.88302734 -0.07087891 11.82855469 -0.07925781 12.80273438 -0.08789062 C14.15141602 -0.09272461 14.15141602 -0.09272461 15.52734375 -0.09765625 C16.77632446 -0.10551147 16.77632446 -0.10551147 18.05053711 -0.11352539 C20 0 20 0 21 1 C21.09504251 3.52541002 21.12557158 6.02337126 21.11352539 8.54907227 C21.11367142 9.33925751 21.11381744 10.12944275 21.1139679 10.943573 C21.11326857 13.56787822 21.10547527 16.19211336 21.09765625 18.81640625 C21.09579214 20.63101665 21.0943682 22.44562756 21.09336853 24.26023865 C21.08954279 29.0459023 21.07971204 33.8315358 21.06866455 38.6171875 C21.05845163 43.49674064 21.05387117 48.37629864 21.04882812 53.25585938 C21.03808981 62.83725499 21.02049257 72.41862028 21 82 C13.74 82 6.48 82 -1 82 C-2.16038916 59.27422468 -1.78445848 36.73150778 -1 14 C-1.66 13.67 -2.32 13.34 -3 13 C-2.34 13 -1.68 13 -1 13 C-1.020625 11.783125 -1.04125 10.56625 -1.0625 9.3125 C-1.11743442 6.07136949 -0.70390422 3.1647977 0 0 Z " fill="#263338" transform="translate(564,479)"/>
<path d="M0 0 C6.6 0 13.2 0 20 0 C20 27.06 20 54.12 20 82 C13.4 82 6.8 82 0 82 C0 54.94 0 27.88 0 0 Z " fill="#233035" transform="translate(816,479)"/>
<path d="M0 0 C1.23157837 0.00616333 1.23157837 0.00616333 2.48803711 0.01245117 C3.37942383 0.01438477 4.27081055 0.01631836 5.18920898 0.01831055 C6.1218457 0.03055664 7.05448242 0.04280273 8.01538086 0.05541992 C9.42013672 0.05638672 9.42013672 0.05638672 10.85327148 0.05737305 C17.81268862 0.10272768 17.81268862 0.10272768 18.95288086 1.24291992 C19.0391996 2.58559405 19.05994559 3.93266314 19.05053711 5.27807617 C19.04731445 6.08696289 19.0440918 6.89584961 19.04077148 7.72924805 C19.02820313 9.00445312 19.02820313 9.00445312 19.01538086 10.30541992 C19.01086914 11.15942383 19.00635742 12.01342773 19.00170898 12.89331055 C18.98988459 15.00987656 18.97194855 17.12640677 18.95288086 19.24291992 C24.56288086 19.24291992 30.17288086 19.24291992 35.95288086 19.24291992 C36.68876384 23.65821781 37.06418452 27.22559003 37.01538086 31.61791992 C37.00635742 32.6775293 36.99733398 33.73713867 36.98803711 34.82885742 C36.97643555 35.62549805 36.96483398 36.42213867 36.95288086 37.24291992 C33.33420527 38.44914512 30.02781835 38.3510891 26.26538086 38.30541992 C25.21253906 38.29865234 25.21253906 38.29865234 24.13842773 38.29174805 C22.40987548 38.27998919 20.6813672 38.26205446 18.95288086 38.24291992 C19.07106617 44.02715988 19.19531026 49.81122575 19.32519531 55.59521484 C19.36853327 57.56327771 19.41020918 59.5313779 19.45019531 61.49951172 C19.50792531 64.32685602 19.57161202 67.15401263 19.63647461 69.98120117 C19.6531871 70.86254227 19.6698996 71.74388336 19.68711853 72.65193176 C19.71703636 73.88286812 19.71703636 73.88286812 19.74755859 75.13867188 C19.77087502 76.22122002 19.77087502 76.22122002 19.79466248 77.32563782 C19.89483343 79.46400137 19.89483343 79.46400137 20.95288086 82.24291992 C26.3291332 83.09180187 30.60658484 83.24535043 35.95288086 82.24291992 C36.86834535 86.70496168 36.93135959 90.58837377 36.51538086 95.11791992 C36.41354492 96.2703418 36.31170898 97.42276367 36.20678711 98.61010742 C36.12299805 99.47893555 36.03920898 100.34776367 35.95288086 101.24291992 C26.07483645 103.48461635 15.94105507 103.23143041 6.95288086 98.24291992 C1.13956706 93.65408735 -1.48376994 86.97698518 -2.34432983 79.74533081 C-2.48522417 77.07342837 -2.54017367 74.41452719 -2.55883789 71.73901367 C-2.57678909 70.77512222 -2.5947403 69.81123077 -2.61323547 68.81813049 C-2.66694767 65.77227004 -2.70110795 62.72656272 -2.73461914 59.68041992 C-2.76782676 57.60162275 -2.80231956 55.52284568 -2.83813477 53.4440918 C-2.92265135 48.37714573 -2.98964779 43.31024198 -3.04711914 38.24291992 C-7.00711914 38.24291992 -10.96711914 38.24291992 -15.04711914 38.24291992 C-16.08308275 34.0990655 -15.95372855 30.67760674 -15.60961914 26.49291992 C-15.53130859 25.4468457 -15.53130859 25.4468457 -15.45141602 24.37963867 C-15.32237842 22.66695789 -15.185523 20.95486926 -15.04711914 19.24291992 C-11.08711914 18.91291992 -7.12711914 18.58291992 -3.04711914 18.24291992 C-3.04711914 14.94291992 -3.04711914 11.64291992 -3.04711914 8.24291992 C-3.37711914 8.24291992 -3.70711914 8.24291992 -4.04711914 8.24291992 C-4.17211914 5.36791992 -4.17211914 5.36791992 -4.04711914 2.24291992 C-2.04711914 0.24291992 -2.04711914 0.24291992 0 0 Z " fill="#0F1619" transform="translate(740,454)"/>
<path d="M0 0 C3.59699349 4.13889862 4.94717992 8.38898757 5.125 13.8125 C3.52236163 18.35330873 0.94423991 20.52505938 -2.8125 23.375 C-6.30987556 24.37425016 -9.55392838 23.95229415 -13 23 C-16.40654184 20.85239754 -18.77828524 18.88727423 -20 15 C-20.4650834 10.81424941 -20.26947631 8.53895262 -18.375 4.75 C-13.4587008 -0.94255697 -7.11193722 -2.91802075 0 0 Z " fill="#28363D" transform="translate(834,448)"/>
<path d="M0 0 C3.42662985 3.0458932 4.65701488 6.48880942 5.25 11 C3.96288936 15.61845581 2.21468004 19.21400862 -1.75 22 C-6.39295267 23.14170967 -8.86050535 23.22237366 -13.5 22.0625 C-17.68514898 19.40654007 -19.58809215 16.82837264 -20.75 12 C-20.62216727 7.84167651 -19.44744467 4.91389301 -16.9375 1.625 C-11.19065273 -2.64408655 -6.66383276 -2.42321191 0 0 Z " fill="#27343A" transform="translate(581.75,449)"/>
<path d="M0 0 C2.634564 2.634564 2.25326395 3.80084358 2.26069641 7.47711182 C2.26778122 8.6407576 2.27486603 9.80440338 2.28216553 11.00331116 C2.27968811 12.28644699 2.27721069 13.56958282 2.2746582 14.89160156 C2.27900374 16.25160503 2.28418636 17.61160604 2.29014587 18.97160339 C2.30356836 22.67221048 2.30411066 26.37271563 2.30158257 30.07334232 C2.30051445 33.16214853 2.30539246 36.25093398 2.310188 39.33973575 C2.3212957 46.62933824 2.32171436 53.91888922 2.31567383 61.20849609 C2.30964013 68.72589631 2.3219267 76.24310908 2.3432439 83.7604773 C2.36087095 90.21407332 2.36685928 96.66760974 2.36360615 103.12122893 C2.36179395 106.97571003 2.36442253 110.83005761 2.37832069 114.68451691 C2.39091144 118.31248983 2.38894335 121.9401715 2.37590981 125.56814003 C2.37242204 127.53029262 2.38371457 129.49245415 2.39547729 131.45457458 C2.32998945 142.42404669 2.32998945 142.42404669 -1 147 C-4.59444183 149.39629455 -7.14861652 149.25781331 -11.29296875 149.1953125 C-11.99899734 149.1924826 -12.70502594 149.18965271 -13.43244934 149.18673706 C-15.68430633 149.17555464 -17.93576352 149.1504542 -20.1875 149.125 C-21.71548904 149.11496767 -23.24348433 149.10584226 -24.77148438 149.09765625 C-28.51447663 149.07562172 -32.25717056 149.04110567 -36 149 C-36 148.67 -36 148.34 -36 148 C-34.6682373 147.97812622 -34.6682373 147.97812622 -33.30957031 147.95581055 C-30.00672038 147.89465466 -26.70469085 147.82048622 -23.40234375 147.73754883 C-21.97472086 147.70435206 -20.54696837 147.67630369 -19.11914062 147.65356445 C-17.06324185 147.61991987 -15.00852488 147.56760438 -12.953125 147.51171875 C-11.09929199 147.47244263 -11.09929199 147.47244263 -9.20800781 147.43237305 C-5.69576514 146.95899544 -4.49716829 146.4448399 -2 144 C-1.36219302 141.57328771 -1.36219302 141.57328771 -1.40174866 138.79325867 C-1.37109282 137.7307253 -1.34043699 136.66819193 -1.3088522 135.57346058 C-1.29595685 134.41959701 -1.2830615 133.26573343 -1.26977539 132.0769043 C-1.24148934 130.87185336 -1.2132033 129.66680243 -1.1840601 128.42523479 C-1.10122809 124.61686951 -1.04773056 120.80895349 -1 117 C-0.96261883 114.68551401 -0.92509659 112.37103029 -0.88742065 110.05654907 C-0.78450387 102.96106978 -0.73235769 95.86555451 -0.68359375 88.76953125 C-0.66294343 86.18494904 -0.6419454 83.60036958 -0.62062073 81.01579285 C-0.57174028 74.99245461 -0.52627185 68.96910021 -0.48259836 62.94572228 C-0.43252439 56.06732982 -0.37787581 49.18897581 -0.32291877 42.3106209 C-0.21033243 28.20711694 -0.10324451 14.1035753 0 0 Z " fill="#38A345" transform="translate(391,435)"/>
<path d="M0 0 C5.92650126 -0.04939701 11.85288297 -0.08571817 17.77954102 -0.10986328 C19.79616381 -0.11992773 21.81277199 -0.13358047 23.8293457 -0.15087891 C26.72611089 -0.17510769 29.62268331 -0.18647859 32.51953125 -0.1953125 C33.42274612 -0.20563507 34.325961 -0.21595764 35.25654602 -0.22659302 C36.09719101 -0.22674408 36.937836 -0.22689514 37.80395508 -0.22705078 C38.54341873 -0.231492 39.28288239 -0.23593323 40.04475403 -0.24050903 C42 0 42 0 45 2 C42.2937563 2.90208123 40.76149014 3.12227599 37.98754883 3.11352539 C37.18694534 3.11344986 36.38634186 3.11337433 35.56147766 3.11329651 C34.70201035 3.10813522 33.84254303 3.10297394 32.95703125 3.09765625 C32.0734343 3.0962413 31.18983734 3.09482635 30.27946472 3.09336853 C27.45710872 3.08777069 24.63483203 3.07521861 21.8125 3.0625 C19.89908969 3.05748472 17.98567813 3.05292186 16.07226562 3.04882812 C11.38145527 3.03865283 6.69081642 3.01907698 2 3 C2 11.25 2 19.5 2 28 C14.54 28 27.08 28 40 28 C40 28.66 40 29.32 40 30 C34.46411467 30.02464775 28.928261 30.04283496 23.39233398 30.05493164 C21.5075627 30.05997244 19.62279535 30.06680498 17.73803711 30.07543945 C15.03498364 30.08751617 12.33198169 30.09323068 9.62890625 30.09765625 C8.78099014 30.10281754 7.93307404 30.10797882 7.0594635 30.11329651 C5.03928932 30.11349195 3.01922066 30.06206211 1 30 C0 29 0 29 -0.11352539 26.22436523 C-0.10828857 25.01466064 -0.10305176 23.80495605 -0.09765625 22.55859375 C-0.09443359 21.25341797 -0.09121094 19.94824219 -0.08789062 18.60351562 C-0.07953401 17.2148431 -0.07106905 15.82617123 -0.0625 14.4375 C-0.05748666 13.04492344 -0.05292347 11.65234519 -0.04882812 10.25976562 C-0.03699434 6.8398013 -0.0205088 3.41992156 0 0 Z " fill="#1D2528" transform="translate(760,471)"/>
<path d="M0 0 C0.69416016 -0.01224609 1.38832031 -0.02449219 2.10351562 -0.03710938 C3.92470901 -0.04239842 5.7453692 0.06580793 7.5625 0.1875 C8.2225 0.8475 8.8825 1.5075 9.5625 2.1875 C6.27730525 3.28256492 3.82586585 3.28710608 0.375 3.25 C-1.25501953 3.23646484 -1.25501953 3.23646484 -2.91796875 3.22265625 C-3.74941406 3.21105469 -4.58085937 3.19945312 -5.4375 3.1875 C-5.43305878 4.07255219 -5.42861755 4.95760437 -5.42404175 5.86947632 C-5.38401693 14.1981793 -5.35354208 22.52685012 -5.33387566 30.85562706 C-5.32342517 35.13784248 -5.30924303 39.41997864 -5.28662109 43.70214844 C-5.26493762 47.83238126 -5.25294091 51.96253769 -5.24774551 56.09282303 C-5.24404165 57.67093738 -5.2368092 59.24904741 -5.22603989 60.82712936 C-5.21158451 63.03246951 -5.20951952 65.23749142 -5.21044922 67.44287109 C-5.206008 68.69973724 -5.20156677 69.95660339 -5.19699097 71.2515564 C-5.4375 74.1875 -5.4375 74.1875 -7.4375 76.1875 C-7.7675 75.8575 -8.0975 75.5275 -8.4375 75.1875 C-8.4375 73.15744518 -8.43392412 71.12685573 -8.375 69.09765625 C-8.30723661 67.099923 -8.30723661 67.099923 -9.4375 65.1875 C-9.11423599 63.18584781 -8.77896951 61.18612695 -8.4375 59.1875 C-8.36984526 56.84072631 -8.35242201 54.49217137 -8.375 52.14453125 C-8.37878662 51.49425461 -8.38257324 50.84397797 -8.38647461 50.17399597 C-8.39859445 48.11592667 -8.41723123 46.05800416 -8.4375 44 C-8.46410928 41.27730071 -8.48400697 38.55484521 -8.5 35.83203125 C-8.51160156 34.62909424 -8.52320313 33.42615723 -8.53515625 32.18676758 C-8.4375 29.1875 -8.4375 29.1875 -7.4375 26.1875 C-8.0975 25.8575 -8.7575 25.5275 -9.4375 25.1875 C-8.7775 25.1875 -8.1175 25.1875 -7.4375 25.1875 C-7.5096875 24.29289062 -7.581875 23.39828125 -7.65625 22.4765625 C-8.85634817 6.84195026 -8.85634817 6.84195026 -8.4375 1.1875 C-6.45630645 -0.79369355 -2.70304936 0.00249589 0 0 Z " fill="#37AF47" transform="translate(409.4375,461.8125)"/>
<path d="M0 0 C2.1875 0 2.1875 0 5 1 C10.584484 7.64743976 12.28581128 15.06257003 12.62109375 23.51953125 C12.65883408 24.34298538 12.6965744 25.16643951 12.73545837 26.0148468 C13.14532166 35.90325538 13.10927726 45.79278633 13.0625 55.6875 C13.05746528 57.57617066 13.05290592 59.46484265 13.04882812 61.35351562 C13.0388656 65.90240529 13.01926592 70.45110307 13 75 C6.73 75 0.46 75 -6 75 C-6 73.35 -6 71.7 -6 70 C-5.67 70.99 -5.34 71.98 -5 73 C-0.05 73 4.9 73 10 73 C9.98218936 65.47971975 9.94313782 57.96010252 9.86790943 50.44018745 C9.83379094 46.94734437 9.8085534 43.45493159 9.80444336 39.96191406 C9.79929912 35.93503089 9.75403361 31.90942637 9.70703125 27.8828125 C9.7109639 26.64387238 9.71489655 25.40493225 9.71894836 24.12844849 C9.56833713 15.0773351 7.74714711 8.25351834 1.6875 1.375 C0.8521875 0.694375 0.8521875 0.694375 0 0 Z " fill="#1C2427" transform="translate(712,486)"/>
<path d="M0 0 C5.28 0 10.56 0 16 0 C16 5.61 16 11.22 16 17 C7 18.125 7 18.125 3 18.0625 C1.8553125 18.04896484 1.8553125 18.04896484 0.6875 18.03515625 C0.130625 18.02355469 -0.42625 18.01195312 -1 18 C-0.83556396 18.84763916 -0.67112793 19.69527832 -0.50170898 20.56860352 C0.01225819 24.08383886 0.08135825 27.35216184 0.02734375 30.90234375 C0.01509766 32.20494141 0.00285156 33.50753906 -0.00976562 34.84960938 C-0.03453335 36.8945403 -0.06252978 38.93932234 -0.09594727 40.98413086 C-0.1264018 42.97758409 -0.14340318 44.97122829 -0.16015625 46.96484375 C-0.17699463 48.1468335 -0.19383301 49.32882324 -0.21118164 50.54663086 C0.01862923 54.30463638 0.74635461 57.4541082 2 61 C3.87587236 62.44941163 3.87587236 62.44941163 6.125 62.9375 C6.84945312 63.15277344 7.57390625 63.36804688 8.3203125 63.58984375 C8.87460937 63.72519531 9.42890625 63.86054687 10 64 C10 64.33 10 64.66 10 65 C3.66752577 65.4871134 3.66752577 65.4871134 0.6875 63.3125 C-3.21591846 57.963371 -3.28476312 53.18938111 -3.23046875 46.796875 C-3.23001053 45.91847961 -3.22955231 45.04008423 -3.2290802 44.1350708 C-3.22606798 42.28599693 -3.21821261 40.43692536 -3.20581055 38.58789062 C-3.18747421 35.74600329 -3.18530154 32.90444051 -3.18554688 30.0625 C-3.18063437 28.26562216 -3.17480722 26.46874654 -3.16796875 24.671875 C-3.16685593 23.81777039 -3.1657431 22.96366577 -3.16459656 22.0836792 C-3.11607289 16.11607289 -3.11607289 16.11607289 -2 15 C0.86267567 14.92674832 3.700719 14.90761795 6.5625 14.9375 C7.36880859 14.94201172 8.17511719 14.94652344 9.00585938 14.95117188 C11.00393756 14.96299482 13.00197783 14.98093086 15 15 C15 10.38 15 5.76 15 1 C10.05 1 5.1 1 0 1 C0 0.67 0 0.34 0 0 Z " fill="#131B1E" transform="translate(629,480)"/>
<path d="M0 0 C0.66 0 1.32 0 2 0 C2.09271379 9.95311932 2.163772 19.90613578 2.20724869 29.85959911 C2.22811627 34.48150583 2.25641864 39.10311693 2.30175781 43.72485352 C2.34524535 48.18579829 2.36914335 52.64645886 2.37950897 57.10759926 C2.38689514 58.80886623 2.40131876 60.51011779 2.42292023 62.21126366 C2.4519937 64.59585454 2.45595448 66.97927383 2.45410156 69.36401367 C2.47567322 70.4170594 2.47567322 70.4170594 2.49768066 71.49137878 C2.4677497 75.05546539 2.05288833 76.91821907 0.09753418 79.94177246 C-2 82 -2 82 -4.01464844 82.56762695 C-4.7059082 82.54144287 -5.39716797 82.51525879 -6.109375 82.48828125 C-7.24052734 82.46411133 -7.24052734 82.46411133 -8.39453125 82.43945312 C-9.17183594 82.39755859 -9.94914062 82.35566406 -10.75 82.3125 C-11.54277344 82.28994141 -12.33554687 82.26738281 -13.15234375 82.24414062 C-15.1023762 82.18540471 -17.05143312 82.09572654 -19 82 C-19 81.67 -19 81.34 -19 81 C-17.95199219 80.96261719 -16.90398437 80.92523437 -15.82421875 80.88671875 C-14.44527695 80.82105485 -13.06637229 80.75460765 -11.6875 80.6875 C-10.99720703 80.66494141 -10.30691406 80.64238281 -9.59570312 80.61914062 C-5.76243574 80.43541859 -5.76243574 80.43541859 -2.30363464 78.93107605 C-0.32208377 75.99580162 -0.56069967 73.01452549 -0.56762695 69.59106445 C-0.5574353 68.83960144 -0.54724365 68.08813843 -0.53674316 67.31390381 C-0.50655112 64.83028773 -0.497338 62.34705693 -0.48828125 59.86328125 C-0.47143912 58.14119682 -0.45328951 56.41912471 -0.43388367 54.69706726 C-0.38632674 50.16466118 -0.35655432 45.63230506 -0.33044434 41.09973145 C-0.30066745 36.47459033 -0.2541273 31.84962152 -0.20898438 27.22460938 C-0.12288657 18.14982961 -0.05557017 9.07501444 0 0 Z " fill="#319C41" transform="translate(423,468)"/>
<path d="M0 0 C0.33 0 0.66 0 1 0 C0.94465088 0.70382812 0.88930176 1.40765625 0.83227539 2.1328125 C0.57438598 5.42177467 0.31844102 8.71088565 0.0625 12 C-0.02451172 13.10601562 -0.11152344 14.21203125 -0.20117188 15.3515625 C-0.89017927 24.2321022 -1.44420164 33.1072263 -2 42 C-19.49 42 -36.98 42 -55 42 C-55 41.67 -55 41.34 -55 41 C-38.17 41 -21.34 41 -4 41 C-4 36.05 -4 31.1 -4 26 C-3.77011566 22.63488461 -3.51035465 19.34165752 -3.125 16 C-3.04636719 15.22011719 -2.96773438 14.44023437 -2.88671875 13.63671875 C-2.36856852 8.89365126 -1.43986997 4.54950513 0 0 Z " fill="#279E37" transform="translate(272,442)"/>
<path d="M0 0 C5.28 0 10.56 0 16 0 C16.81235475 4.06177373 17.10732417 7.23350092 17.0625 11.3125 C17.05347656 12.38113281 17.04445313 13.44976562 17.03515625 14.55078125 C17.02355469 15.35902344 17.01195312 16.16726563 17 17 C10.99167245 19.00277585 4.32099966 17.39506248 -2 17 C-2 30.53 -2 44.06 -2 58 C-2.33 58 -2.66 58 -3 58 C-3 44.14 -3 30.28 -3 16 C2.42635165 14.19121612 8.33114562 14.94799216 14 15 C14 10.38 14 5.76 14 1 C9.38 1 4.76 1 0 1 C0 0.67 0 0.34 0 0 Z " fill="#131A1C" transform="translate(880,480)"/>
<path d="M0 0 C2 2 2 2 2.22705078 5.62353516 C2.22673357 7.17874689 2.21540299 8.73398051 2.1953125 10.2890625 C2.1924826 11.10748627 2.18965271 11.92591003 2.18673706 12.76913452 C2.17552532 15.38790393 2.15041929 18.00633364 2.125 20.625 C2.11497147 22.39843257 2.1058454 24.17187049 2.09765625 25.9453125 C2.07558278 30.29700626 2.04104644 34.6484455 2 39 C0.42971212 39.01363163 -1.14061079 39.02325706 -2.7109375 39.03125 C-3.58540527 39.03705078 -4.45987305 39.04285156 -5.36083984 39.04882812 C-8.96900099 38.98207214 -12.43219684 38.52856343 -16 38 C-16 37.67 -16 37.34 -16 37 C-10.72 37 -5.44 37 0 37 C0 24.79 0 12.58 0 0 Z " fill="#242C2E" transform="translate(760,522)"/>
<path d="M0 0 C6.6 0 13.2 0 20 0 C20.66 1.32 21.32 2.64 22 4 C21.34 4 20.68 4 20 4 C20 9.28 20 14.56 20 20 C19.34 20 18.68 20 18 20 C18 14.39 18 8.78 18 3 C12.06 3 6.12 3 0 3 C0 2.01 0 1.02 0 0 Z " fill="#20292B" transform="translate(608,460)"/>
<path d="M0 0 C0.33 0 0.66 0 1 0 C1.33 11.22 1.66 22.44 2 34 C-4.27 34 -10.54 34 -17 34 C-17 32.35 -17 30.7 -17 29 C-16.67 29.99 -16.34 30.98 -16 32 C-11.05 32 -6.1 32 -1 32 C-1.01160156 30.69546875 -1.02320313 29.3909375 -1.03515625 28.046875 C-1.09277053 18.63774279 -1.06542869 9.3605521 0 0 Z " fill="#131A1D" transform="translate(723,527)"/>
<path d="M0 0 C0.66 0.33 1.32 0.66 2 1 C2.02683987 3.97922593 2.04676037 6.95821295 2.0625 9.9375 C2.07087891 10.78763672 2.07925781 11.63777344 2.08789062 12.51367188 C2.09111328 13.32255859 2.09433594 14.13144531 2.09765625 14.96484375 C2.10289307 15.7137085 2.10812988 16.46257324 2.11352539 17.23413086 C2 19 2 19 1 20 C-1.95705321 20.08868299 -4.89065056 20.11520296 -7.84765625 20.09765625 C-9.17729652 20.09553383 -9.17729652 20.09553383 -10.53379822 20.09336853 C-13.37673254 20.08775215 -16.21958931 20.07519691 -19.0625 20.0625 C-20.98502491 20.05748711 -22.90755104 20.05292384 -24.83007812 20.04882812 C-29.55341549 20.03777741 -34.27669458 20.02050183 -39 20 C-39 19.67 -39 19.34 -39 19 C-26.46 18.67 -13.92 18.34 -1 18 C-1 14.04 -1 10.08 -1 6 C-0.5 2.25 -0.5 2.25 0 0 Z " fill="#333D3F" transform="translate(800,498)"/>
<path d="M0 0 C0.33 0 0.66 0 1 0 C4.26501697 14.69257636 1.80087386 33.57086329 -5 47 C-6.18783598 43.43649207 -5.70294056 42.24394821 -4.6875 38.6875 C-1.34492087 25.94296315 -0.56448322 13.10195264 0 0 Z " fill="#31A640" transform="translate(338,350)"/>
<path d="M0 0 C0.99 0.33 1.98 0.66 3 1 C2.28457031 1.43828125 1.56914062 1.8765625 0.83203125 2.328125 C-10.34249253 9.44049977 -19.81998673 18.08369623 -28.4140625 28.16015625 C-29.87612241 29.85628979 -31.39554387 31.43930177 -33 33 C-31.36851974 22.23223031 -17.78844249 12.55706587 -9.58203125 6.40625 C-8.41223991 5.55781216 -7.23909748 4.71397372 -6.0625 3.875 C-5.5065918 3.47200684 -4.95068359 3.06901367 -4.37792969 2.65380859 C-2.78515625 1.5546875 -2.78515625 1.5546875 0 0 Z " fill="#2FA53E" transform="translate(290,337)"/>
<path d="M0 0 C-0.66386719 0.36351562 -1.32773437 0.72703125 -2.01171875 1.1015625 C-8.71268802 4.91671289 -14.02454883 8.13954603 -16.3125 15.875 C-16.6528125 17.421875 -16.6528125 17.421875 -17 19 C-14.36 19.66 -11.72 20.32 -9 21 C-9 21.33 -9 21.66 -9 22 C-12.63 22 -16.26 22 -20 22 C-19.74100852 14.87773443 -17.49150351 10.50046445 -13 5 C-8.79297377 1.09347565 -5.70365066 -1.64824832 0 0 Z " fill="#1A2223" transform="translate(678,482)"/>
<path d="M0 0 C1.31343353 4.39388207 1.56827842 8.78927099 1.8125 13.1875 C1.90208984 14.43337891 1.99167969 15.67925781 2.08398438 16.96289062 C2.14521484 18.16494141 2.20644531 19.36699219 2.26953125 20.60546875 C2.33760986 21.71043701 2.40568848 22.81540527 2.47583008 23.95385742 C2 27 2 27 -0.04882812 29.86914062 C-3.79796529 32.57616157 -5.89601534 32.57976065 -10.48828125 32.48828125 C-11.19147995 32.48120651 -11.89467865 32.47413177 -12.6191864 32.46684265 C-14.85140227 32.43899212 -17.08105077 32.3762832 -19.3125 32.3125 C-20.83134381 32.28740451 -22.3502272 32.26459352 -23.86914062 32.24414062 C-27.58025248 32.18920007 -31.28987541 32.10299739 -35 32 C-35 31.67 -35 31.34 -35 31 C-34.1121582 30.98541748 -33.22431641 30.97083496 -32.30957031 30.95581055 C-29.00672038 30.89465466 -25.70469085 30.82048622 -22.40234375 30.73754883 C-20.97472086 30.70435206 -19.54696837 30.67630369 -18.11914062 30.65356445 C-16.06324185 30.61991987 -14.00852488 30.56760438 -11.953125 30.51171875 C-10.09929199 30.47244263 -10.09929199 30.47244263 -8.20800781 30.43237305 C-4.74848947 29.96610159 -3.27968758 29.63788453 -1 27 C-0.35596812 24.10622273 -0.35596812 24.10622273 -0.390625 20.80078125 C-0.35839844 19.59228516 -0.32617188 18.38378906 -0.29296875 17.13867188 C-0.27878906 15.87603516 -0.26460938 14.61339844 -0.25 13.3125 C-0.22035156 12.03826172 -0.19070313 10.76402344 -0.16015625 9.45117188 C-0.08935951 6.30071708 -0.03670953 3.1510066 0 0 Z " fill="#219934" transform="translate(390,552)"/>
<path d="M0 0 C3.81698768 4.45315229 6.04421897 7.52373787 5.9375 13.5 C4.6332049 18.36936839 2.14032373 20.59541255 -2 23.3125 C-4.41972239 24.14427957 -6.4593161 24.14114911 -9 24 C-9 23.34 -9 22.68 -9 22 C-8.37351562 21.82984375 -7.74703125 21.6596875 -7.1015625 21.484375 C-6.28429687 21.24203125 -5.46703125 20.9996875 -4.625 20.75 C-3.81289063 20.51796875 -3.00078125 20.2859375 -2.1640625 20.046875 C0.11377518 19.16841783 0.11377518 19.16841783 1.26171875 17.1328125 C2.43885732 13.73218996 2.69156636 10.50483146 2 7 C0.55465003 4.61290633 -1.00415061 2.99584939 -3 1 C-2.01 0.67 -1.02 0.34 0 0 Z " fill="#242D2E" transform="translate(833,448)"/>
<path d="M0 0 C0.33 0 0.66 0 1 0 C3.0125 32.415625 3.0125 32.415625 1 46 C0.67 46 0.34 46 0 46 C-0.78233554 39.92833862 -1.09549483 34.13906269 -0.87890625 28.02734375 C-0.85529526 27.21882462 -0.83168427 26.41030548 -0.80735779 25.57728577 C-0.73164383 23.03046927 -0.64723147 20.48403077 -0.5625 17.9375 C-0.50918655 16.19598117 -0.45644704 14.45444468 -0.40429688 12.71289062 C-0.27615609 8.47502748 -0.14022125 4.23747993 0 0 Z " fill="#269F38" transform="translate(347,436)"/>
<path d="M0 0 C0.33 0 0.66 0 1 0 C0.29228127 6.90541093 -0.74971532 13.68505089 -1.98242188 20.51367188 C-2.716652 24.73459087 -3.15792876 28.69472478 -3 33 C-3.99 33 -4.98 33 -6 33 C-8.1875 30 -8.1875 30 -10 27 C-9.67 26.34 -9.34 25.68 -9 25 C-8.01 26.32 -7.02 27.64 -6 29 C-5.81824219 27.74445313 -5.63648438 26.48890625 -5.44921875 25.1953125 C-2.88365417 7.95561327 -2.88365417 7.95561327 0 0 Z " fill="#2EA53C" transform="translate(267,424)"/>
<path d="M0 0 C2.49310643 3.73965964 2.0603261 5.29070641 1.625 9.6875 C1.45871094 11.45673828 1.45871094 11.45673828 1.2890625 13.26171875 C1.14597656 14.61716797 1.14597656 14.61716797 1 16 C-2.99795892 16.95619733 -6.70803922 17.1039592 -10.8125 17.0625 C-11.97394531 17.05347656 -13.13539063 17.04445313 -14.33203125 17.03515625 C-15.21246094 17.02355469 -16.09289062 17.01195312 -17 17 C-17.33 16.34 -17.66 15.68 -18 15 C-17.02417969 14.93941406 -16.04835938 14.87882813 -15.04296875 14.81640625 C-13.77066406 14.73261719 -12.49835937 14.64882813 -11.1875 14.5625 C-9.92292969 14.48128906 -8.65835938 14.40007813 -7.35546875 14.31640625 C-4.00818107 14.12815453 -4.00818107 14.12815453 -1 13 C-1.01160156 12.14535156 -1.02320313 11.29070313 -1.03515625 10.41015625 C-1.04417969 9.30542969 -1.05320312 8.20070313 -1.0625 7.0625 C-1.07410156 5.96035156 -1.08570313 4.85820313 -1.09765625 3.72265625 C-1 1 -1 1 0 0 Z " fill="#1D2324" transform="translate(895,545)"/>
<path d="M0 0 C4.29 0 8.58 0 13 0 C13 0.33 13 0.66 13 1 C9.37 1 5.74 1 2 1 C2 5.62 2 10.24 2 15 C4.97 15 7.94 15 11 15 C11 15.66 11 16.32 11 17 C7.37 17.33 3.74 17.66 0 18 C-1.03604162 13.85583353 -0.91488137 10.97857647 -0.5625 6.75 C-0.46066406 5.48671875 -0.35882812 4.2234375 -0.25390625 2.921875 C-0.17011719 1.95765625 -0.08632813 0.9934375 0 0 Z " fill="#11191C" transform="translate(845,480)"/>
<path d="M0 0 C0.5775 0.2475 1.155 0.495 1.75 0.75 C0.945625 1.36875 0.14125 1.9875 -0.6875 2.625 C-3.28874519 4.49164041 -3.28874519 4.49164041 -4.25 6.75 C-4.57884341 12.58475715 -4.57884341 12.58475715 -2.25 17.75 C-0.08718718 18.8725649 -0.08718718 18.8725649 2.375 19.5 C3.60089844 19.86351562 3.60089844 19.86351562 4.8515625 20.234375 C5.47804688 20.40453125 6.10453125 20.5746875 6.75 20.75 C6.75 21.08 6.75 21.41 6.75 21.75 C-0.6612997 22.03504999 -0.6612997 22.03504999 -4.25 19.75 C-6.6646476 16.74228106 -8.29398891 13.49070384 -8.1953125 9.5859375 C-7.24833297 5.150086 -5.41505674 -0.60167297 0 0 Z " fill="#1C2325" transform="translate(569.25,449.25)"/>
<path d="M0 0 C0.33 0 0.66 0 1 0 C0.44274332 7.041698 -1.53500506 13.23243372 -3.875 19.875 C-4.22691406 20.91914063 -4.57882812 21.96328125 -4.94140625 23.0390625 C-5.28816406 24.03421875 -5.63492188 25.029375 -5.9921875 26.0546875 C-6.46180908 27.40796143 -6.46180908 27.40796143 -6.94091797 28.78857422 C-8 31 -8 31 -11 33 C-9.02571072 25.26097538 -6.59882073 17.79475369 -3.8125 10.3125 C-3.44447266 9.31283203 -3.07644531 8.31316406 -2.69726562 7.28320312 C-1.80226758 4.8539227 -0.90314552 2.42626047 0 0 Z " fill="#181F20" transform="translate(543,481)"/>
<path d="M0 0 C0 0.66 0 1.32 0 2 C-12.87 1.505 -12.87 1.505 -26 1 C-25.67 0.34 -25.34 -0.32 -25 -1 C-16.53439205 -3.11640199 -8.36260184 -1.9553474 0 0 Z " fill="#293234" transform="translate(705,480)"/>
<path d="M0 0 C0.9583374 0.04713135 1.9166748 0.0942627 2.90405273 0.14282227 C3.93852539 0.19116211 4.97299805 0.23950195 6.03881836 0.28930664 C7.12743164 0.34538086 8.21604492 0.40145508 9.33764648 0.45922852 C10.43012695 0.51143555 11.52260742 0.56364258 12.64819336 0.61743164 C15.35743724 0.74756999 18.06635442 0.88254906 20.77514648 1.02172852 C20.44514648 2.34172852 20.11514648 3.66172852 19.77514648 5.02172852 C19.11514648 5.02172852 18.45514648 5.02172852 17.77514648 5.02172852 C17.77514648 4.36172852 17.77514648 3.70172852 17.77514648 3.02172852 C11.50514648 3.02172852 5.23514648 3.02172852 -1.22485352 3.02172852 C-1.88485352 4.34172852 -2.54485352 5.66172852 -3.22485352 7.02172852 C-3.26739708 5.02218106 -3.26566134 3.02131215 -3.22485352 1.02172852 C-2.22485352 0.02172852 -2.22485352 0.02172852 0 0 Z " fill="#14191C" transform="translate(534.224853515625,452.978271484375)"/>
<path d="M0 0 C3.57268784 3.57268784 4.56434576 8.79200289 6.1875 13.5 C6.56841797 14.57121094 6.94933594 15.64242188 7.34179688 16.74609375 C7.69693359 17.76832031 8.05207031 18.79054688 8.41796875 19.84375 C8.74563232 20.78412109 9.0732959 21.72449219 9.41088867 22.69335938 C10 25 10 25 9 27 C6.17212897 22.71997899 4.4939059 18.30757538 2.8125 13.5 C2.40354492 12.38044922 2.40354492 12.38044922 1.98632812 11.23828125 C0.62293425 7.37704044 -0.37126062 4.15811892 0 0 Z " fill="#1B2423" transform="translate(467,490)"/>
<path d="M0 0 C0.33 0 0.66 0 1 0 C1.17015625 0.66386719 1.3403125 1.32773437 1.515625 2.01171875 C3.43854319 9.24023073 3.43854319 9.24023073 8 15 C10.92877146 16.53532483 13.91276867 17.81919998 17 19 C17 19.33 17 19.66 17 20 C12.65930324 20.65110451 10.2916161 19.84446503 6.8125 17.375 C3.41518382 14.59478714 1.36475989 12.26487465 0 8 C-0.21203699 5.27803683 -0.14165803 2.73872196 0 0 Z " fill="#182021" transform="translate(609,540)"/>
<path d="M0 0 C0 0.66 0 1.32 0 2 C-0.62648438 2.19335938 -1.25296875 2.38671875 -1.8984375 2.5859375 C-2.71570313 2.84632813 -3.53296875 3.10671875 -4.375 3.375 C-5.59316406 3.75785156 -5.59316406 3.75785156 -6.8359375 4.1484375 C-9.16459185 4.89854283 -9.16459185 4.89854283 -11 7 C-11.67651207 9.19704511 -11.67651207 9.19704511 -12.125 11.625 C-12.37636719 12.85089844 -12.37636719 12.85089844 -12.6328125 14.1015625 C-12.75398437 14.72804688 -12.87515625 15.35453125 -13 16 C-13.66 16 -14.32 16 -15 16 C-15.32764303 11.90446218 -15.23069669 9.46139337 -13.375 5.75 C-9.57385518 1.34867442 -5.83719102 -0.51504627 0 0 Z " fill="#262E30" transform="translate(829,447)"/>
<path d="M0 0 C0 3.13542355 -0.3473849 3.97160519 -1.86328125 6.58203125 C-2.25580078 7.26716797 -2.64832031 7.95230469 -3.05273438 8.65820312 C-3.46845703 9.36912109 -3.88417969 10.08003906 -4.3125 10.8125 C-5.12243819 12.21406768 -5.93105435 13.61640026 -6.73828125 15.01953125 C-7.1245166 15.69064941 -7.51075195 16.36176758 -7.90869141 17.05322266 C-9.36783496 19.65617806 -10.6978599 22.31565292 -12 25 C-12.7265625 23.4609375 -12.7265625 23.4609375 -13 21 C-11.89255771 18.40424903 -10.74774603 16.0718596 -9.375 13.625 C-9.03082031 12.97789062 -8.68664062 12.33078125 -8.33203125 11.6640625 C-5.96615075 7.33389007 -3.26379989 3.69897321 0 0 Z " fill="#2FA83D" transform="translate(302,369)"/>
<path d="M0 0 C1.73885452 2.26051088 3.2629027 4.45764544 4.6875 6.9375 C8.42331878 11.88493568 13.51717574 14.30754166 19 17 C13.48432852 17.84856484 10.38193798 15.81336196 6.05859375 12.71484375 C3.30871942 10.42415147 1.57275892 8.21389866 0 5 C-0.25 2.125 -0.25 2.125 0 0 Z " fill="#1B2224" transform="translate(657,544)"/>
<path d="M0 0 C5.79897971 -0.30520946 9.85807863 -0.0653762 15 3 C18.11565302 6.47409098 19.22534781 9.80288914 19.25 14.4375 C19.1675 15.613125 19.085 16.78875 19 18 C18.67 18 18.34 18 18 18 C17.82984375 17.32453125 17.6596875 16.6490625 17.484375 15.953125 C15.74028762 9.0576775 15.74028762 9.0576775 11 4 C7.42540894 2.21270447 3.94352346 1.55025909 0 1 C0 0.67 0 0.34 0 0 Z " fill="#1A2225" transform="translate(687,494)"/>
<path d="M0 0 C0.33 0 0.66 0 1 0 C1 6.93 1 13.86 1 21 C0.67 21 0.34 21 0 21 C0 14.07 0 7.14 0 0 Z " fill="#414C4D" transform="translate(856,501)"/>
<path d="M0 0 C0.66 0 1.32 0 2 0 C3.80230168 3.82989106 4.19622241 6.78121808 4 11 C1.55160412 7.32740617 0 4.45351799 0 0 Z " fill="#182020" transform="translate(489,496)"/>
<path d="M0 0 C0.66 0 1.32 0 2 0 C3.80230168 3.82989106 4.19622241 6.78121808 4 11 C1.6870518 8.6870518 1.50419025 7.52095125 0.875 4.375 C0.70742188 3.55773437 0.53984375 2.74046875 0.3671875 1.8984375 C0.24601562 1.27195312 0.12484375 0.64546875 0 0 Z " fill="#171F20" transform="translate(485,484)"/>
<path d="M0 0 C0.33 0.99 0.66 1.98 1 3 C-0.65 4.65 -2.3 6.3 -4 8 C-4.99 7.67 -5.98 7.34 -7 7 C-4.69 4.69 -2.38 2.38 0 0 Z " fill="#39AD46" transform="translate(271,351)"/>
<path d="M0 0 C2.69082872 0.17635452 5.32851446 0.61835921 8 1 C8 1.33 8 1.66 8 2 C6.9275 2.12375 5.855 2.2475 4.75 2.375 C1.62136385 2.89643936 -0.33480424 3.40088254 -3 5 C-1.125 1.125 -1.125 1.125 0 0 Z " fill="#36AD45" transform="translate(144,463)"/>
<path d="M0 0 C0 3.58912412 -0.66436554 4.10857029 -3 6.6875 C-3.556875 7.31011719 -4.11375 7.93273437 -4.6875 8.57421875 C-5.120625 9.04472656 -5.55375 9.51523437 -6 10 C-6 6.41087588 -5.33563446 5.89142971 -3 3.3125 C-2.443125 2.68988281 -1.88625 2.06726563 -1.3125 1.42578125 C-0.879375 0.95527344 -0.44625 0.48476563 0 0 Z " fill="#2DA23A" transform="translate(295,373)"/>
<path d="M0 0 C-0.6875 2.375 -0.6875 2.375 -2 5 C-4.625 6.3125 -4.625 6.3125 -7 7 C-7 5 -7 5 -4.625 2.375 C-2 0 -2 0 0 0 Z " fill="#37A645" transform="translate(392,577)"/>
<path d="M0 0 C2.31 0 4.62 0 7 0 C7 0.66 7 1.32 7 2 C4.69 2.33 2.38 2.66 0 3 C0 2.01 0 1.02 0 0 Z " fill="#1B2327" transform="translate(637,495)"/>
<path d="M0 0 C2.31 1.65 4.62 3.3 7 5 C5.68 5.33 4.36 5.66 3 6 C1.25 4.75 1.25 4.75 0 3 C0 2.01 0 1.02 0 0 Z " fill="#1C2427" transform="translate(816,464)"/>
<path d="M0 0 C1.32 0 2.64 0 4 0 C4 1.98 4 3.96 4 6 C2.62437146 4.71034824 1.29233607 3.37310707 0 2 C0 1.34 0 0.68 0 0 Z " fill="#44C651" transform="translate(258,448)"/>
<path d="M0 0 C0.33 0 0.66 0 1 0 C1 4.29 1 8.58 1 13 C0.67 13 0.34 13 0 13 C0 8.71 0 4.42 0 0 Z " fill="#3F4A4C" transform="translate(856,524)"/>
<path d="M0 0 C1.98 0 3.96 0 6 0 C6 0.33 6 0.66 6 1 C4.02 1 2.04 1 0 1 C0 0.67 0 0.34 0 0 Z " fill="#424B4E" transform="translate(792,519)"/>
<path d="M0 0 C0.33 0 0.66 0 1 0 C1 1.65 1 3.3 1 5 C0.67 5 0.34 5 0 5 C0 3.35 0 1.7 0 0 Z " fill="#3E484A" transform="translate(647,545)"/>
<path d="M0 0 C0.66 0 1.32 0 2 0 C1.67 0.99 1.34 1.98 1 3 C0.67 2.01 0.34 1.02 0 0 Z " fill="#414C4D" transform="translate(738,496)"/>
<path d="M0 0 C1 4 1 4 1 4 Z " fill="#56C65A" transform="translate(170,475)"/>
<path d="M0 0 C0.99 0.495 0.99 0.495 2 1 C1.67 1.66 1.34 2.32 1 3 C0.67 2.01 0.34 1.02 0 0 Z " fill="#424F50" transform="translate(561,465)"/>
<path d="" fill="#414C4E" transform="translate(0,0)"/>
<path d="" fill="#424A4B" transform="translate(0,0)"/>
<path d="" fill="#58BF5C" transform="translate(0,0)"/>
<path d="" fill="#58C559" transform="translate(0,0)"/>
<path d="" fill="#465D52" transform="translate(0,0)"/>
<path d="" fill="#59C35C" transform="translate(0,0)"/>
<path d="" fill="#57C55C" transform="translate(0,0)"/>
<path d="M0 0 C0.33 0.66 0.66 1.32 1 2 C0.34 1.67 -0.32 1.34 -1 1 C-0.67 0.67 -0.34 0.34 0 0 Z " fill="#414C4D" transform="translate(657,498)"/>
<path d="M0 0 C3 1 3 1 3 1 Z " fill="#476151" transform="translate(464,496)"/>
<path d="M0 0 C0.99 0.495 0.99 0.495 2 1 C1.01 1.495 1.01 1.495 0 2 C0 1.34 0 0.68 0 0 Z " fill="#58C75E" transform="translate(298,480)"/>
<path d="" fill="#455150" transform="translate(0,0)"/>
<path d="" fill="#58C55B" transform="translate(0,0)"/>
<path d="" fill="#57C55A" transform="translate(0,0)"/>
<path d="" fill="#445051" transform="translate(0,0)"/>
<path d="" fill="#58C65A" transform="translate(0,0)"/>
<path d="" fill="#57C35C" transform="translate(0,0)"/>
<path d="M0 0 C2 1 2 1 2 1 Z " fill="#444F50" transform="translate(710,481)"/>
<path d="" fill="#424A4C" transform="translate(0,0)"/>
<path d="M0 0 C2 1 2 1 2 1 Z " fill="#434E4E" transform="translate(672,480)"/>
<path d="" fill="#424D51" transform="translate(0,0)"/>
<path d="" fill="#475453" transform="translate(0,0)"/>
<path d="M0 0 C2 1 2 1 2 1 Z " fill="#4C5853" transform="translate(534,452)"/>
<path d="M0 0 C2 1 2 1 2 1 Z " fill="#4C5757" transform="translate(560,448)"/>
<path d="" fill="#51C55B" transform="translate(0,0)"/>
<path d="" fill="#51C35B" transform="translate(0,0)"/>
<path d="" fill="#54C65B" transform="translate(0,0)"/>
<path d="M0 0 C2 1 2 1 2 1 Z " fill="#54C25C" transform="translate(242,417)"/>
<path d="" fill="#53C05B" transform="translate(0,0)"/>
<path d="" fill="#53C159" transform="translate(0,0)"/>
<path d="M0 0 C2 1 2 1 2 1 Z " fill="#59C15D" transform="translate(321,320)"/>
<path d="" fill="#6B7264" transform="translate(0,0)"/>
<path d="" fill="#55B458" transform="translate(0,0)"/>
<path d="" fill="#58C15B" transform="translate(0,0)"/>
<path d="" fill="#485151" transform="translate(0,0)"/>
<path d="" fill="#59C359" transform="translate(0,0)"/>
<path d="" fill="#4D5452" transform="translate(0,0)"/>
<path d="" fill="#4F5654" transform="translate(0,0)"/>
<path d="" fill="#4E5351" transform="translate(0,0)"/>
<path d="" fill="#4C5654" transform="translate(0,0)"/>
<path d="" fill="#4A5454" transform="translate(0,0)"/>
<path d="" fill="#4B5353" transform="translate(0,0)"/>
<path d="" fill="#4D5352" transform="translate(0,0)"/>
<path d="" fill="#4A5453" transform="translate(0,0)"/>
<path d="" fill="#5BBF5F" transform="translate(0,0)"/>
<path d="" fill="#4D5653" transform="translate(0,0)"/>
<path d="" fill="#4B5353" transform="translate(0,0)"/>
<path d="" fill="#58C25B" transform="translate(0,0)"/>
<path d="" fill="#454E4E" transform="translate(0,0)"/>
<path d="" fill="#59C45D" transform="translate(0,0)"/>
<path d="" fill="#424C4E" transform="translate(0,0)"/>
<path d="" fill="#40494A" transform="translate(0,0)"/>
<path d="" fill="#444E50" transform="translate(0,0)"/>
<path d="" fill="#58C45C" transform="translate(0,0)"/>
<path d="" fill="#4B5E53" transform="translate(0,0)"/>
<path d="" fill="#56C55D" transform="translate(0,0)"/>
<path d="" fill="#424C4F" transform="translate(0,0)"/>
<path d="" fill="#58C45A" transform="translate(0,0)"/>
<path d="" fill="#4A504F" transform="translate(0,0)"/>
<path d="" fill="#434B4E" transform="translate(0,0)"/>
<path d="" fill="#444E4E" transform="translate(0,0)"/>
<path d="" fill="#495D54" transform="translate(0,0)"/>
<path d="" fill="#58C35C" transform="translate(0,0)"/>
<path d="" fill="#454D4F" transform="translate(0,0)"/>
<path d="" fill="#414C4F" transform="translate(0,0)"/>
<path d="" fill="#404B50" transform="translate(0,0)"/>
<path d="" fill="#3D494D" transform="translate(0,0)"/>
<path d="" fill="#57C45C" transform="translate(0,0)"/>
<path d="" fill="#414B4F" transform="translate(0,0)"/>
<path d="" fill="#56C45B" transform="translate(0,0)"/>
<path d="" fill="#485553" transform="translate(0,0)"/>
<path d="" fill="#56C35B" transform="translate(0,0)"/>
<path d="" fill="#455252" transform="translate(0,0)"/>
<path d="" fill="#58C35D" transform="translate(0,0)"/>
<path d="" fill="#465553" transform="translate(0,0)"/>
<path d="" fill="#465D54" transform="translate(0,0)"/>
<path d="" fill="#414B4F" transform="translate(0,0)"/>
<path d="" fill="#3F494A" transform="translate(0,0)"/>
<path d="" fill="#3F494B" transform="translate(0,0)"/>
<path d="" fill="#465051" transform="translate(0,0)"/>
<path d="" fill="#434C4F" transform="translate(0,0)"/>
<path d="" fill="#414E4F" transform="translate(0,0)"/>
<path d="" fill="#434E50" transform="translate(0,0)"/>
<path d="" fill="#414D4F" transform="translate(0,0)"/>
<path d="" fill="#495E54" transform="translate(0,0)"/>
<path d="" fill="#496254" transform="translate(0,0)"/>
<path d="" fill="#57C55D" transform="translate(0,0)"/>
<path d="" fill="#404B4C" transform="translate(0,0)"/>
<path d="" fill="#55C659" transform="translate(0,0)"/>
<path d="" fill="#3F484B" transform="translate(0,0)"/>
<path d="" fill="#455252" transform="translate(0,0)"/>
<path d="" fill="#56C55D" transform="translate(0,0)"/>
<path d="" fill="#434D4F" transform="translate(0,0)"/>
<path d="" fill="#55C65A" transform="translate(0,0)"/>
<path d="" fill="#404E4F" transform="translate(0,0)"/>
<path d="" fill="#57C55A" transform="translate(0,0)"/>
<path d="" fill="#424B4F" transform="translate(0,0)"/>
<path d="" fill="#414A4E" transform="translate(0,0)"/>
<path d="" fill="#496150" transform="translate(0,0)"/>
<path d="" fill="#414B4C" transform="translate(0,0)"/>
<path d="" fill="#404B4D" transform="translate(0,0)"/>
<path d="" fill="#3F4B4D" transform="translate(0,0)"/>
<path d="" fill="#454F50" transform="translate(0,0)"/>
<path d="" fill="#3F4A4A" transform="translate(0,0)"/>
<path d="" fill="#57C660" transform="translate(0,0)"/>
<path d="" fill="#495252" transform="translate(0,0)"/>
<path d="" fill="#434B4C" transform="translate(0,0)"/>
<path d="" fill="#455051" transform="translate(0,0)"/>
<path d="" fill="#424B4E" transform="translate(0,0)"/>
<path d="" fill="#404C4D" transform="translate(0,0)"/>
<path d="" fill="#495152" transform="translate(0,0)"/>
<path d="" fill="#414C4F" transform="translate(0,0)"/>
<path d="" fill="#424E50" transform="translate(0,0)"/>
<path d="" fill="#434F51" transform="translate(0,0)"/>
<path d="" fill="#59C45C" transform="translate(0,0)"/>
<path d="" fill="#58C85A" transform="translate(0,0)"/>
<path d="" fill="#59C55A" transform="translate(0,0)"/>
<path d="" fill="#435250" transform="translate(0,0)"/>
<path d="" fill="#41494C" transform="translate(0,0)"/>
<path d="" fill="#5BBF5C" transform="translate(0,0)"/>
<path d="" fill="#424D4F" transform="translate(0,0)"/>
<path d="" fill="#434D4F" transform="translate(0,0)"/>
<path d="" fill="#59C75E" transform="translate(0,0)"/>
<path d="" fill="#5BC960" transform="translate(0,0)"/>
<path d="" fill="#59C95F" transform="translate(0,0)"/>
<path d="" fill="#57C85F" transform="translate(0,0)"/>
<path d="" fill="#59C860" transform="translate(0,0)"/>
<path d="" fill="#59C75E" transform="translate(0,0)"/>
<path d="" fill="#5BC660" transform="translate(0,0)"/>
<path d="" fill="#454E4F" transform="translate(0,0)"/>
<path d="" fill="#56C85C" transform="translate(0,0)"/>
<path d="" fill="#57C85E" transform="translate(0,0)"/>
<path d="" fill="#59C55E" transform="translate(0,0)"/>
<path d="" fill="#58C65C" transform="translate(0,0)"/>
<path d="" fill="#445252" transform="translate(0,0)"/>
<path d="" fill="#45614E" transform="translate(0,0)"/>
<path d="" fill="#58C35D" transform="translate(0,0)"/>
<path d="" fill="#414D4F" transform="translate(0,0)"/>
<path d="" fill="#435150" transform="translate(0,0)"/>
<path d="" fill="#444E4F" transform="translate(0,0)"/>
<path d="" fill="#476250" transform="translate(0,0)"/>
<path d="" fill="#4D5856" transform="translate(0,0)"/>
<path d="" fill="#57C35A" transform="translate(0,0)"/>
<path d="" fill="#465154" transform="translate(0,0)"/>
<path d="" fill="#43514F" transform="translate(0,0)"/>
<path d="" fill="#444F4E" transform="translate(0,0)"/>
<path d="" fill="#485354" transform="translate(0,0)"/>
<path d="" fill="#424E4E" transform="translate(0,0)"/>
<path d="" fill="#4B6454" transform="translate(0,0)"/>
<path d="" fill="#58C15D" transform="translate(0,0)"/>
<path d="" fill="#434E50" transform="translate(0,0)"/>
<path d="" fill="#455151" transform="translate(0,0)"/>
<path d="" fill="#444E54" transform="translate(0,0)"/>
<path d="" fill="#445151" transform="translate(0,0)"/>
<path d="" fill="#56C060" transform="translate(0,0)"/>
<path d="" fill="#475051" transform="translate(0,0)"/>
<path d="" fill="#5DBD5F" transform="translate(0,0)"/>
<path d="" fill="#5ABE5D" transform="translate(0,0)"/>
<path d="" fill="#57C55A" transform="translate(0,0)"/>
<path d="" fill="#5CBF5E" transform="translate(0,0)"/>
<path d="" fill="#4D5857" transform="translate(0,0)"/>
<path d="" fill="#505A58" transform="translate(0,0)"/>
<path d="" fill="#455350" transform="translate(0,0)"/>
<path d="" fill="#455753" transform="translate(0,0)"/>
<path d="" fill="#4F5E56" transform="translate(0,0)"/>
<path d="" fill="#55C65C" transform="translate(0,0)"/>
<path d="" fill="#4C5757" transform="translate(0,0)"/>
<path d="" fill="#4F5D58" transform="translate(0,0)"/>
<path d="" fill="#56755E" transform="translate(0,0)"/>
<path d="" fill="#57C75D" transform="translate(0,0)"/>
<path d="" fill="#505958" transform="translate(0,0)"/>
<path d="" fill="#515D58" transform="translate(0,0)"/>
<path d="" fill="#515D59" transform="translate(0,0)"/>
<path d="" fill="#59795D" transform="translate(0,0)"/>
<path d="" fill="#5B8361" transform="translate(0,0)"/>
<path d="" fill="#55C158" transform="translate(0,0)"/>
<path d="" fill="#54C75B" transform="translate(0,0)"/>
<path d="" fill="#56C25B" transform="translate(0,0)"/>
<path d="" fill="#57C05D" transform="translate(0,0)"/>
<path d="" fill="#56C35A" transform="translate(0,0)"/>
<path d="" fill="#59BD5B" transform="translate(0,0)"/>
<path d="" fill="#56C75C" transform="translate(0,0)"/>
<path d="" fill="#56C25E" transform="translate(0,0)"/>
<path d="" fill="#55C55E" transform="translate(0,0)"/>
<path d="" fill="#57BF5C" transform="translate(0,0)"/>
<path d="" fill="#54C45A" transform="translate(0,0)"/>
<path d="" fill="#56C55C" transform="translate(0,0)"/>
<path d="" fill="#57C75E" transform="translate(0,0)"/>
<path d="" fill="#53C158" transform="translate(0,0)"/>
<path d="" fill="#5BC55F" transform="translate(0,0)"/>
<path d="" fill="#5FC95E" transform="translate(0,0)"/>
<path d="" fill="#59C45E" transform="translate(0,0)"/>
<path d="" fill="#58C45E" transform="translate(0,0)"/>
<path d="" fill="#59C55D" transform="translate(0,0)"/>
<path d="" fill="#56C05E" transform="translate(0,0)"/>
<path d="" fill="#57C15C" transform="translate(0,0)"/>
<path d="" fill="#56C35B" transform="translate(0,0)"/>
<path d="" fill="#53C05A" transform="translate(0,0)"/>
<path d="" fill="#53BE5B" transform="translate(0,0)"/>
<path d="" fill="#5ABA5C" transform="translate(0,0)"/>
<path d="" fill="#757E6E" transform="translate(0,0)"/>
</svg>

