<?xml version="1.0" encoding="utf-8"?>
<!-- Generator: Adobe Illustrator 19.2.1, SVG Export Plug-In . SVG Version: 6.00 Build 0)  -->
<svg version="1.1" id="layer" xmlns="http://www.w3.org/2000/svg" xmlns:xlink="http://www.w3.org/1999/xlink" x="0px" y="0px"
	 viewBox="0 0 652 652" style="enable-background:new 0 0 652 652;" xml:space="preserve">
<style type="text/css">
	.st0{fill:#0066EE;}
</style>
<path class="st0" d="M71.7,296.4c-3,1.7-5.5,4-7.5,6.8c-0.9-2.7-2.6-5.1-5-6.6c-2.8-1.6-5.9-2.4-9.1-2.3c-2.8,0-5.6,0.7-8.1,2.1
	c-2.7,1.6-5,3.8-6.7,6.5v-7H22v51.5h13.8v-31c0-1.4,0.3-2.9,0.8-4.2c0.5-1.2,1.2-2.4,2.2-3.3c1-1,2.1-1.8,3.4-2.4
	c1.2-0.5,2.5-0.7,3.8-0.7c0.9,0,1.7,0.1,2.5,0.4c0.8,0.3,1.5,0.8,2,1.4c0.6,0.8,1.1,1.7,1.3,2.7c0.4,1.5,0.5,3,0.5,4.5v32.5H66
	v-31.6c0-1.3,0.3-2.6,0.8-3.7c0.5-1.2,1.3-2.2,2.2-3.2c1-1,2.1-1.8,3.4-2.4c1.2-0.5,2.5-0.7,3.8-0.7c0.8,0,1.7,0.1,2.5,0.4
	c0.8,0.3,1.5,0.8,2,1.4c0.6,0.8,1.1,1.7,1.3,2.7c0.4,1.5,0.6,3,0.5,4.6v32.5h13.8v-34.4c0-6.6-1.3-11.3-4-14.2
	c-1.6-1.5-3.4-2.7-5.5-3.4c-2.1-0.7-4.3-1-6.4-0.9c-3,0-6,0.7-8.6,2.2 M139.1,295.9L128,329.7L116,295.9h-15.9l21.3,49.2l-1.6,4.3
	c-0.5,1.8-1.5,3.4-2.8,4.7c-1.3,0.9-2.8,1.4-4.4,1.3c-2,0-3.9-0.3-5.8-0.8l-2.3,10.2c1.7,0.6,3.5,1,5.3,1.2c1.7,0.2,3.4,0.3,5.1,0.3
	c2.4,0.1,4.7-0.3,6.9-1.1c1.8-0.7,3.5-1.8,4.8-3.2c1.5-1.7,2.7-3.6,3.7-5.6c1.1-2.2,2.2-4.8,3.3-7.7l20.6-53H139.1z M175.6,277.2
	c-2.1,0.7-4,1.8-5.7,3.3c-1.7,1.6-3,3.5-3.8,5.6c-1,2.6-1.4,5.4-1.4,8.2v1.7h-8v10.8h8v40.7h13.8v-40.7h11.9v-10.8h-11.9v-2
	c-0.1-1,0-2,0.4-3c0.4-1,1-1.8,1.8-2.5c1.4-1,3.1-1.5,4.8-1.5c2,0,4,0.3,6,0.8l1.9-10c-1.8-0.6-3.7-1-5.6-1.2
	c-1.7-0.2-3.4-0.3-5.2-0.3C180.2,276.1,177.9,276.5,175.6,277.2z M198.6,289.4h14.1v-12.4h-14.1V289.4z M198.8,347.4h13.8v-51.5
	h-13.8V347.4z M226.3,282.2v13.7h-8v10.8h8v24.1c0,6.4,1.4,10.9,4.1,13.6c2.7,2.7,6.9,4,12.5,4c1.7,0,3.4-0.1,5.1-0.3
	c1.9-0.3,3.7-0.7,5.6-1.2l-2-10.2c-0.9,0.3-1.8,0.5-2.8,0.6c-1,0-1.9,0.2-2.8,0.2c-1.6,0.1-3.1-0.5-4.3-1.4
	c-0.6-0.7-1.1-1.6-1.4-2.6c-0.3-0.9-0.4-1.9-0.3-2.9v-23.7h11.8V296h-11.8v-13.8H226.3z M279.4,296.4c-2.9,1.5-5.4,3.8-7.2,6.6v-7.1
	h-13.3v51.5h13.8v-31c0-1.5,0.3-2.9,0.9-4.2c0.6-1.2,1.4-2.3,2.3-3.3c1.1-1,2.3-1.7,3.6-2.3c1.5-0.6,3-0.8,4.6-0.8
	c2-0.1,4,0.6,5.5,2c1.4,1.3,2.2,3.8,2.2,7.4v32.2h13.8v-34c0-6.6-1.4-11.4-4.3-14.4c-2.9-3.1-7.2-4.6-12.9-4.6c-3,0-5.9,0.8-8.6,2.2
	 M328.5,311.5c0.5-1.3,1.2-2.5,2.2-3.6c1-1,2.2-1.9,3.5-2.4c1.5-0.6,3.2-0.9,4.8-0.9c1.5-0.1,3,0.1,4.4,0.6c1.4,0.5,2.7,1.3,3.7,2.4
	c1.9,2.3,2.8,5.3,2.6,8.3h-22.1C327.7,314.4,328,313,328.5,311.5L328.5,311.5z M328.9,296.2c-3.1,1.2-5.8,3-8.1,5.4
	c-2.3,2.5-4.1,5.4-5.3,8.6c-1.3,3.7-1.9,7.6-1.9,11.6c0,8.7,2.2,15.4,6.5,20.1c4.3,4.7,10.7,7.1,19.2,7.1c7.1,0,12.5-1.5,16.2-4.5
	c3.9-3.4,6.4-8.1,6.9-13.2H349c-1,4.6-4.2,6.9-9.6,6.9c-1.6,0.1-3.3-0.1-4.8-0.7c-1.5-0.6-2.9-1.6-4-2.8c-2.1-2.8-3.2-6.2-3.1-9.7
	H363v-5.6c0-7.7-2-13.8-5.9-18.4c-4-4.5-9.9-6.8-17.7-6.8C335.8,294.3,332.2,294.9,328.9,296.2 M382.8,295.5c-2.5,0.7-4.9,1.8-7,3.2
	c-1.9,1.3-3.4,3-4.5,4.9c-1.1,2.1-1.7,4.4-1.6,6.7c-0.2,2.1,0.2,4.1,0.9,6c0.8,1.9,2,3.6,3.6,4.9c4.1,2.8,8.9,4.6,13.9,5.1l7.1,1.2
	c1.9,0.1,3.7,0.9,5.1,2.2c0.9,0.9,1.3,2.2,1.3,3.4c0.1,0.8-0.1,1.6-0.5,2.3c-0.4,0.7-1,1.3-1.6,1.7c-2.2,1-4.6,1.4-7,1.2
	c-2.4,0.1-4.8-0.4-7.1-1.4c-1.1-0.6-1.9-1.5-2.6-2.5c-0.6-1-1-2.2-1.1-3.4h-13.1c0.1,3,0.9,6,2.4,8.6c1.3,2.2,3.2,4.1,5.4,5.5
	c2.3,1.4,4.8,2.4,7.5,2.9c2.9,0.6,5.8,0.9,8.8,0.9c7.7,0,13.3-1.5,17-4.3c1.8-1.4,3.2-3.2,4.1-5.2c1-2,1.4-4.3,1.3-6.5
	c0-2.2-0.2-4.4-0.8-6.5c-0.5-1.8-1.6-3.5-3-4.8c-1.6-1.5-3.5-2.7-5.5-3.5c-2.9-1.1-5.9-1.8-8.9-2.3l-6.5-1.1
	c-2.1-0.2-4.1-0.9-5.9-1.9c-0.5-0.4-0.9-1-1.2-1.6c-0.3-0.6-0.4-1.3-0.3-2c0-0.6,0.2-1.2,0.4-1.7c0.4-0.6,0.9-1.2,1.5-1.6
	c0.9-0.5,1.8-0.9,2.8-1.1c1.5-0.3,3-0.5,4.6-0.5c2.5-0.2,4.9,0.4,7.1,1.7c1.6,1.3,2.7,3.2,3.1,5.2l12.3-1.6c-0.4-2.1-1-4.2-1.9-6.1
	c-0.9-1.9-2.2-3.6-3.9-4.9c-2-1.6-4.3-2.7-6.8-3.4c-3.3-0.9-6.8-1.3-10.2-1.2c-3,0-6.1,0.3-9,1.1 M433.9,295.5
	c-2.5,0.7-4.9,1.8-7,3.2c-1.9,1.3-3.4,3-4.6,5c-1.1,2.1-1.7,4.4-1.6,6.7c-0.1,2,0.2,4.1,1,6c0.8,1.9,2,3.6,3.6,4.9
	c4.1,2.8,8.9,4.6,13.9,5.1l7.1,1.2c1.9,0.1,3.7,0.9,5.1,2.2c0.9,0.9,1.3,2.2,1.3,3.4c0.1,0.8-0.1,1.6-0.5,2.3
	c-0.4,0.7-0.9,1.3-1.6,1.7c-2.2,1-4.6,1.4-7,1.2c-2.4,0.1-4.8-0.4-7.1-1.4c-1.1-0.6-2-1.4-2.6-2.5c-0.6-1-1-2.2-1-3.4h-13.2
	c0.1,3,0.9,6,2.4,8.6c1.4,2.2,3.2,4.1,5.4,5.5c2.3,1.4,4.8,2.4,7.5,2.9c2.9,0.6,5.8,0.9,8.8,0.9c7.7,0,13.3-1.5,17-4.3
	c1.8-1.4,3.2-3.2,4.2-5.2c1-2,1.4-4.3,1.4-6.5c0-2.2-0.2-4.4-0.8-6.5c-0.6-1.8-1.6-3.5-2.9-4.8c-1.6-1.5-3.5-2.7-5.6-3.4
	c-2.9-1.1-5.9-1.8-9-2.3l-6.5-1.1c-2.1-0.2-4.1-0.9-5.9-1.9c-0.5-0.4-0.9-1-1.2-1.6c-0.3-0.6-0.4-1.3-0.3-2c0-0.6,0.2-1.2,0.5-1.7
	c0.3-0.6,0.9-1.2,1.5-1.6c0.9-0.5,1.9-0.9,2.9-1.1c1.5-0.3,3-0.5,4.6-0.5c2.5-0.2,5,0.4,7.1,1.7c1.6,1.3,2.7,3.2,3.1,5.2l12.3-1.6
	c-0.4-2.1-1-4.2-1.9-6.1c-0.9-1.9-2.3-3.6-3.9-4.9c-2-1.6-4.3-2.7-6.7-3.4c-3.3-0.9-6.8-1.3-10.2-1.2c-3,0-6.1,0.3-9,1.1
	 M495.2,337.3c-1.5-0.5-2.8-1.2-4-2.3c-1.3-1.4-2.2-3.1-2.7-4.9c-0.6-2.6-0.9-5.3-0.8-8v-1.6c-0.1-2.5,0.3-4.9,0.9-7.3
	c0.6-1.8,1.6-3.4,2.9-4.7c1.1-0.9,2.3-1.6,3.6-2.2c1.4-0.5,2.8-0.7,4.3-0.7c1.5,0,2.9,0.3,4.3,0.8c1.4,0.6,2.6,1.6,3.5,2.8
	c1.1,1.5,1.9,3.2,2.3,5c0.6,2.5,0.9,5,0.8,7.6c0,2.5-0.2,5-0.9,7.4c-0.5,1.8-1.3,3.5-2.4,5c-0.9,1.2-2.2,2.2-3.6,2.8
	c-1.4,0.6-2.8,0.9-4.3,0.9C497.8,337.8,496.4,337.7,495.2,337.3L495.2,337.3z M487.4,302.7v-6.8h-13.3v70.7h13.8v-24.5
	c1.8,2.5,4.3,4.4,7.1,5.5c2.4,0.9,5,1.4,7.6,1.4c3.2,0,6.4-0.6,9.3-2c2.7-1.3,5.1-3.2,7-5.6c2-2.6,3.5-5.5,4.4-8.6
	c1-3.6,1.6-7.4,1.5-11.1c0-8.5-1.8-15.2-5.3-20c-3.5-4.9-8.9-7.3-16-7.3c-3.2-0.1-6.3,0.6-9.1,2.1
	C491.6,297.9,489.2,300,487.4,302.7z M546,336.8c-0.6-0.5-1-1.1-1.4-1.8c-0.3-0.7-0.4-1.5-0.4-2.2c0-1,0.1-2.1,0.5-3.1
	c0.4-1,1.1-1.8,1.9-2.4c1.2-0.8,2.6-1.4,4.1-1.7c2.3-0.5,4.6-0.8,7-0.9l6.1-0.3v2.7c0.1,1.8-0.3,3.6-1.2,5.3c-0.8,1.4-1.8,2.6-3,3.5
	c-2.5,1.7-5.6,2.6-8.6,2.5C549.2,338.4,547.5,337.9,546,336.8L546,336.8z M540.4,297.9c-2,1.3-3.6,3-4.8,5.1c-1.2,2-2,4.3-2.3,6.6
	l12.6,1.2c0.8-4.1,3.9-6.2,9.3-6.2c2.2,0,4.3,0.6,6.2,1.8c0.9,0.8,1.6,1.8,2.1,2.9c0.5,1.1,0.6,2.3,0.5,3.6v2.6l-6.6,0.3
	c-3.2,0.1-6.5,0.5-9.7,1c-3,0.5-5.9,1.4-8.6,2.7c-2.5,1.2-4.6,3-6.2,5.2c-1.6,2.6-2.5,5.6-2.3,8.6c-0.1,2.4,0.4,4.8,1.4,7
	c0.8,1.9,2.1,3.6,3.7,4.9c1.6,1.3,3.4,2.2,5.4,2.8c2.1,0.6,4.3,0.9,6.5,0.9c3.4,0.1,6.8-0.6,9.8-2.2c2.6-1.5,4.9-3.4,6.8-5.6v6.5
	h12.9v-32.5c0-2.9-0.3-5.8-1.1-8.6c-0.7-2.4-1.9-4.6-3.6-6.5c-1.8-1.9-4.1-3.3-6.6-4.1c-3.2-1-6.6-1.5-10-1.4
	c-5.3-0.3-10.7,1-15.3,3.6 M587.3,347.4H601v-70.4h-13.8V347.4z M611.5,283.9v-5.6h1.6v-1.4h-4.9v1.4h1.6v5.6H611.5z M615.5,283.9
	v-4.7l2,4.7h0.8l2-4.7v4.7h1.6v-7.1h-2l-2,4.7l-2-4.7h-2.2v7.1H615.5z"/>
</svg>
